<svg width="9" height="24" viewBox="0 0 9 24" fill="none" xmlns="http://www.w3.org/2000/svg">
<path d="M4.90655 0C7.18689 0.00011171 9.00619 1.90363 8.90265 4.18164L8.58429 11.1816C8.48718 13.3179 6.7267 15 4.58819 15H4.41046C2.27196 15 0.511471 13.3179 0.414367 11.1816L0.0960074 4.18164C-0.00753239 1.90363 1.81176 0.00011171 4.0921 0V2C2.95198 2.00011 2.04229 2.95185 2.09405 4.09082L2.41241 11.0908C2.46097 12.159 3.34121 13 4.41046 13H4.58819L4.78644 12.9902C5.69916 12.9003 6.43654 12.1958 6.56769 11.2881L6.58624 11.0908L6.9046 4.09082C6.95313 3.02304 6.15663 2.11958 5.11749 2.01074L4.90655 2V0ZM4.90655 0V2H4.0921V0H4.90655Z" fill="black"/>
<path d="M2.09586 4.09082C2.04408 2.95178 2.95358 2 4.09379 2H4.90784C6.04806 2 6.95756 2.95178 6.90578 4.09082L6.5876 11.0908C6.53905 12.159 5.65892 13 4.58966 13H4.41197C3.34272 13 2.46259 12.159 2.41404 11.0908L2.09586 4.09082Z" fill="#FA0D0D"/>
<path d="M7 19.5C7 20.8807 5.88071 22 4.5 22C3.11929 22 2 20.8807 2 19.5C2 18.1193 3.11929 17 4.5 17C5.88071 17 7 18.1193 7 19.5Z" fill="#FA0D0D"/>
<path d="M7 19.5C7 18.1193 5.88071 17 4.5 17C3.11929 17 2 18.1193 2 19.5C2 20.8807 3.11929 22 4.5 22C5.88071 22 7 20.8807 7 19.5ZM9 19.5C9 21.9853 6.98528 24 4.5 24C2.01472 24 0 21.9853 0 19.5C0 17.0147 2.01472 15 4.5 15C6.98528 15 9 17.0147 9 19.5Z" fill="black"/>
</svg>
