<svg width="677" height="196" viewBox="0 0 677 196" fill="none" xmlns="http://www.w3.org/2000/svg">
<mask id="path-1-outside-1_913_2028" maskUnits="userSpaceOnUse" x="107" y="0" width="114" height="195" fill="black">
<rect fill="white" x="107" width="114" height="195"/>
<path d="M164 3C193.823 3 218 26.4961 218 55.4795C218 79.7375 201.063 110.686 178.056 120.134C199.107 126.222 214.5 145.639 214.5 168.651V192H113.5V168.651C113.5 145.639 128.892 126.222 149.943 120.134C126.936 110.686 110 79.7372 110 55.4795C110 26.4961 134.177 3 164 3Z"/>
</mask>
<path d="M164 3C193.823 3 218 26.4961 218 55.4795C218 79.7375 201.063 110.686 178.056 120.134C199.107 126.222 214.5 145.639 214.5 168.651V192H113.5V168.651C113.5 145.639 128.892 126.222 149.943 120.134C126.936 110.686 110 79.7372 110 55.4795C110 26.4961 134.177 3 164 3Z" fill="black"/>
<path d="M164 3V0V0V3ZM218 55.4795L221 55.4795V55.4795H218ZM178.056 120.134L176.916 117.359L168.959 120.626L177.222 123.016L178.056 120.134ZM214.5 168.651H217.5V168.651H214.5ZM214.5 192V195H217.5V192H214.5ZM113.5 192H110.5V195H113.5V192ZM113.5 168.651H110.5V168.651H113.5ZM149.943 120.134L150.777 123.016L159.04 120.626L151.083 117.359L149.943 120.134ZM110 55.4795H107V55.4795L110 55.4795ZM164 3V6C192.248 6 215 28.2331 215 55.4795H218H221C221 24.759 195.399 0 164 0V3ZM218 55.4795L215 55.4795C215 66.9718 210.966 80.2495 204.077 91.8267C197.182 103.417 187.635 112.957 176.916 117.359L178.056 120.134L179.195 122.909C191.484 117.863 201.909 107.205 209.234 94.8946C216.566 82.571 221 68.2452 221 55.4795L218 55.4795ZM178.056 120.134L177.222 123.016C197.025 128.742 211.5 147.01 211.5 168.651H214.5H217.5C217.5 144.267 201.189 123.701 178.889 117.252L178.056 120.134ZM214.5 168.651H211.5V192H214.5H217.5V168.651H214.5ZM214.5 192V189H113.5V192V195H214.5V192ZM113.5 192H116.5V168.651H113.5H110.5V192H113.5ZM113.5 168.651H116.5C116.5 147.01 130.975 128.743 150.777 123.016L149.943 120.134L149.11 117.252C126.81 123.701 110.5 144.268 110.5 168.651H113.5ZM149.943 120.134L151.083 117.359C140.364 112.957 130.818 103.416 123.922 91.8265C117.034 80.2492 113 66.9716 113 55.4795L110 55.4795L107 55.4795C107 68.245 111.434 82.5707 118.766 94.8943C126.09 107.205 136.516 117.863 148.804 122.909L149.943 120.134ZM110 55.4795H113C113 28.2331 135.752 6 164 6V3V0C132.601 4.76837e-07 107 24.759 107 55.4795H110Z" fill="black" mask="url(#path-1-outside-1_913_2028)"/>
<path d="M113.5 168.651C113.5 140.761 136.11 118.151 164 118.151C191.89 118.151 214.5 140.761 214.5 168.651V192H113.5V168.651Z" fill="url(#paint0_linear_913_2028)"/>
<ellipse cx="164" cy="123" rx="12.5" ry="5" fill="#539D50"/>
<path d="M218 55.4791C218 84.4625 193.823 123 164 123C134.177 123 110 84.4625 110 55.4791C110 26.4957 134.177 3 164 3C193.823 3 218 26.4957 218 55.4791Z" fill="#8CD789"/>
<path d="M152.103 49.9386C157.115 58.5235 158.346 73.5059 151.43 77.5438C145.985 80.7232 137.112 76.1688 131.139 69.8975C128.056 66.6609 126.131 62.4092 125.842 57.9487C125.475 52.2779 127.414 48.1422 132.522 45.1596C139.438 41.1218 147.09 41.3536 152.103 49.9386Z" fill="#0A1125"/>
<path d="M176.848 49.9386C171.836 58.5235 170.606 73.5059 177.521 77.5438C182.967 80.7232 191.839 76.1688 197.812 69.8975C200.895 66.6609 202.821 62.4092 203.109 57.9487C203.476 52.2779 201.538 48.1422 196.429 45.1596C189.514 41.1218 181.861 41.3536 176.848 49.9386Z" fill="#0A1125"/>
<ellipse cx="144.5" cy="53.3486" rx="3.5" ry="4.5" fill="#D9D9D9"/>
<ellipse cx="194.5" cy="53.3486" rx="3.5" ry="4.5" fill="#D9D9D9"/>
<path d="M163.5 170L151 124H176L163.5 170Z" fill="#D9D9D9"/>
<path d="M151.488 139.814L151.144 123.813C159.246 121.9 162.616 123.889 166.121 133.332L151.488 139.814Z" fill="#EAEAEA"/>
<path d="M176.057 139.814L176.401 123.813C168.299 121.9 164.929 123.889 161.424 133.332L176.057 139.814Z" fill="#EAEAEA"/>
<path d="M155.5 97H172.5" stroke="black" stroke-width="3"/>
<mask id="path-14-outside-2_913_2028" maskUnits="userSpaceOnUse" x="335" y="0" width="114" height="195" fill="black">
<rect fill="white" x="335" width="114" height="195"/>
<path d="M392 3C421.823 3 446 26.4961 446 55.4795C446 79.7375 429.063 110.686 406.056 120.134C427.107 126.222 442.5 145.639 442.5 168.651V192H341.5V168.651C341.5 145.639 356.892 126.222 377.943 120.134C354.936 110.686 338 79.7372 338 55.4795C338 26.4961 362.177 3 392 3Z"/>
</mask>
<path d="M392 3C421.823 3 446 26.4961 446 55.4795C446 79.7375 429.063 110.686 406.056 120.134C427.107 126.222 442.5 145.639 442.5 168.651V192H341.5V168.651C341.5 145.639 356.892 126.222 377.943 120.134C354.936 110.686 338 79.7372 338 55.4795C338 26.4961 362.177 3 392 3Z" fill="#0A1125"/>
<path d="M392 3V0V0V3ZM446 55.4795L449 55.4795V55.4795H446ZM406.056 120.134L404.916 117.359L396.959 120.626L405.222 123.016L406.056 120.134ZM442.5 168.651H445.5V168.651H442.5ZM442.5 192V195H445.5V192H442.5ZM341.5 192H338.5V195H341.5V192ZM341.5 168.651H338.5V168.651H341.5ZM377.943 120.134L378.777 123.016L387.04 120.626L379.083 117.359L377.943 120.134ZM338 55.4795H335V55.4795L338 55.4795ZM392 3V6C420.248 6 443 28.2331 443 55.4795H446H449C449 24.759 423.399 0 392 0V3ZM446 55.4795L443 55.4795C443 66.9718 438.966 80.2495 432.077 91.8267C425.182 103.417 415.635 112.957 404.916 117.359L406.056 120.134L407.195 122.909C419.484 117.863 429.909 107.205 437.234 94.8946C444.566 82.571 449 68.2452 449 55.4795L446 55.4795ZM406.056 120.134L405.222 123.016C425.025 128.742 439.5 147.01 439.5 168.651H442.5H445.5C445.5 144.267 429.189 123.701 406.889 117.252L406.056 120.134ZM442.5 168.651H439.5V192H442.5H445.5V168.651H442.5ZM442.5 192V189H341.5V192V195H442.5V192ZM341.5 192H344.5V168.651H341.5H338.5V192H341.5ZM341.5 168.651H344.5C344.5 147.01 358.975 128.743 378.777 123.016L377.943 120.134L377.11 117.252C354.81 123.701 338.5 144.268 338.5 168.651H341.5ZM377.943 120.134L379.083 117.359C368.364 112.957 358.818 103.416 351.922 91.8265C345.034 80.2492 341 66.9716 341 55.4795L338 55.4795L335 55.4795C335 68.245 339.434 82.5707 346.766 94.8943C354.09 107.205 364.516 117.863 376.804 122.909L377.943 120.134ZM338 55.4795H341C341 28.2331 363.752 6 392 6V3V0C360.601 4.76837e-07 335 24.759 335 55.4795H338Z" fill="black" mask="url(#path-14-outside-2_913_2028)"/>
<path d="M341.5 168.651C341.5 140.761 364.11 118.151 392 118.151C419.89 118.151 442.5 140.761 442.5 168.651V192H341.5V168.651Z" fill="url(#paint1_linear_913_2028)"/>
<ellipse cx="392" cy="123" rx="12.5" ry="5" fill="#539D50"/>
<path d="M446 55.4791C446 84.4625 421.823 123 392 123C362.177 123 338 84.4625 338 55.4791C338 26.4957 362.177 3 392 3C421.823 3 446 26.4957 446 55.4791Z" fill="#8CD789"/>
<path d="M380.103 49.9386C385.115 58.5235 386.346 73.5059 379.43 77.5438C373.985 80.7232 365.112 76.1688 359.139 69.8975C356.056 66.6609 354.131 62.4092 353.842 57.9487C353.475 52.2779 355.414 48.1422 360.522 45.1596C367.438 41.1218 375.09 41.3536 380.103 49.9386Z" fill="#0A1125"/>
<path d="M404.848 49.9386C399.836 58.5235 398.606 73.5059 405.521 77.5438C410.967 80.7232 419.839 76.1688 425.812 69.8975C428.895 66.6609 430.821 62.4092 431.109 57.9487C431.476 52.2779 429.538 48.1422 424.429 45.1596C417.514 41.1218 409.861 41.3536 404.848 49.9386Z" fill="#0A1125"/>
<ellipse cx="372.5" cy="53.3486" rx="3.5" ry="4.5" fill="#D9D9D9"/>
<ellipse cx="422.5" cy="53.3486" rx="3.5" ry="4.5" fill="#D9D9D9"/>
<path d="M392 146.5L379.5 124H404.5L392 146.5Z" fill="#D9D9D9"/>
<path d="M352.5 164.5L342 180.5V192H442V175L437 162.5L427 181.5L415 166L408 179.5L394.5 158L378.5 180.5L369 162.5L358 180.5L352.5 164.5Z" fill="url(#paint2_linear_913_2028)"/>
<path d="M381.5 94H402.5V96.5C402.5 102.299 397.799 107 392 107C386.201 107 381.5 102.299 381.5 96.5V94Z" fill="#0A1125"/>
<mask id="path-26-outside-3_913_2028" maskUnits="userSpaceOnUse" x="563" y="0" width="114" height="195" fill="black">
<rect fill="white" x="563" width="114" height="195"/>
<path d="M620 3C649.823 3 674 26.4961 674 55.4795C674 79.0491 658.011 108.936 636 119.279V120.739C656.048 127.431 670.5 146.353 670.5 168.651V192H569.5V168.651C569.5 146.726 583.473 128.064 603 121.085V119H603.417C581.707 108.408 566 78.8405 566 55.4795C566 26.4961 590.177 3 620 3Z"/>
</mask>
<path d="M620 3C649.823 3 674 26.4961 674 55.4795C674 79.0491 658.011 108.936 636 119.279V120.739C656.048 127.431 670.5 146.353 670.5 168.651V192H569.5V168.651C569.5 146.726 583.473 128.064 603 121.085V119H603.417C581.707 108.408 566 78.8405 566 55.4795C566 26.4961 590.177 3 620 3Z" fill="#E3E2E2"/>
<path d="M620 3V0V0V3ZM674 55.4795L677 55.4795V55.4795H674ZM636 119.279L634.724 116.564L633 117.374V119.279H636ZM636 120.739H633V122.901L635.05 123.585L636 120.739ZM670.5 168.651H673.5V168.651H670.5ZM670.5 192V195H673.5V192H670.5ZM569.5 192H566.5V195H569.5V192ZM569.5 168.651H566.5V168.651H569.5ZM603 121.085L604.01 123.91L606 123.199V121.085H603ZM603 119V116H600V119H603ZM603.417 119V122L604.732 116.304L603.417 119ZM566 55.4795H563V55.4795L566 55.4795ZM620 3V6C648.248 6 671 28.2331 671 55.4795H674H677C677 24.759 651.399 0 620 0V3ZM674 55.4795L671 55.4795C671 66.6431 667.193 79.4957 660.655 90.8415C654.112 102.196 645.016 111.728 634.724 116.564L636 119.279L637.276 121.994C648.995 116.488 658.9 105.904 665.854 93.8372C672.812 81.7613 677 67.8855 677 55.4795L674 55.4795ZM636 119.279H633V120.739H636H639V119.279H636ZM636 120.739L635.05 123.585C653.911 129.88 667.5 147.683 667.5 168.651H670.5H673.5C673.5 145.024 658.185 124.982 636.95 117.894L636 120.739ZM670.5 168.651H667.5V192H670.5H673.5V168.651H670.5ZM670.5 192V189H569.5V192V195H670.5V192ZM569.5 192H572.5V168.651H569.5H566.5V192H569.5ZM569.5 168.651H572.5C572.5 148.033 585.639 130.476 604.01 123.91L603 121.085L601.99 118.26C581.308 125.653 566.5 145.419 566.5 168.651H569.5ZM603 121.085H606V119H603H600V121.085H603ZM603 119V122H603.417V119V116H603V119ZM603.417 119L604.732 116.304C594.571 111.346 585.611 101.822 579.173 90.541C572.739 79.2677 569 66.5435 569 55.4795L566 55.4795L563 55.4795C563 67.7764 567.114 81.5163 573.962 93.5149C580.805 105.506 590.553 116.062 602.102 121.696L603.417 119ZM566 55.4795H569C569 28.2331 591.752 6 620 6V3V0C588.601 4.76837e-07 563 24.759 563 55.4795H566Z" fill="black" mask="url(#path-26-outside-3_913_2028)"/>
<path d="M569.5 168.651C569.5 140.761 592.11 118.151 620 118.151C647.89 118.151 670.5 140.761 670.5 168.651V192H569.5V168.651Z" fill="url(#paint3_linear_913_2028)"/>
<ellipse cx="619" cy="124" rx="14" ry="6" fill="#539D50"/>
<path d="M674 55.4791C674 84.4625 649.823 123 620 123C590.177 123 566 84.4625 566 55.4791C566 26.4957 590.177 3 620 3C649.823 3 674 26.4957 674 55.4791Z" fill="#8CD789"/>
<path d="M608.103 49.9386C613.115 58.5235 614.346 73.5059 607.43 77.5438C601.985 80.7232 593.112 76.1688 587.139 69.8975C584.056 66.6609 582.131 62.4092 581.842 57.9487C581.475 52.2779 583.414 48.1422 588.522 45.1596C595.438 41.1218 603.09 41.3536 608.103 49.9386Z" fill="#0A1125"/>
<path d="M632.848 49.9386C627.836 58.5235 626.606 73.5059 633.521 77.5438C638.967 80.7232 647.839 76.1688 653.812 69.8975C656.895 66.6609 658.821 62.4092 659.109 57.9487C659.476 52.2779 657.538 48.1422 652.429 45.1596C645.514 41.1218 637.861 41.3536 632.848 49.9386Z" fill="#0A1125"/>
<ellipse cx="600.5" cy="53.3486" rx="3.5" ry="4.5" fill="#D9D9D9"/>
<ellipse cx="650.5" cy="53.3486" rx="3.5" ry="4.5" fill="#D9D9D9"/>
<path d="M610.5 101.002C618.188 99.1251 622.419 99.2097 629.5 101.002" stroke="black" stroke-width="3"/>
<rect x="601" y="130" width="37" height="61" fill="#EAEAEA"/>
<circle cx="630.174" cy="135.826" r="2.82609" fill="#D8D8D8"/>
<circle cx="630.174" cy="135.826" r="2.82609" fill="url(#paint4_linear_913_2028)"/>
<circle cx="630.174" cy="152.478" r="2.82609" fill="#D8D8D8"/>
<circle cx="630.174" cy="152.478" r="2.82609" fill="url(#paint5_linear_913_2028)"/>
<circle cx="630.174" cy="169.131" r="2.82609" fill="#D8D8D8"/>
<circle cx="630.174" cy="169.131" r="2.82609" fill="url(#paint6_linear_913_2028)"/>
<circle cx="630.174" cy="185.782" r="2.82609" fill="#D8D8D8"/>
<circle cx="630.174" cy="185.782" r="2.82609" fill="url(#paint7_linear_913_2028)"/>
<circle cx="608.826" cy="135.826" r="2.82609" fill="url(#paint8_linear_913_2028)"/>
<circle cx="608.826" cy="152.478" r="2.82609" fill="url(#paint9_linear_913_2028)"/>
<circle cx="608.826" cy="169.131" r="2.82609" fill="url(#paint10_linear_913_2028)"/>
<circle cx="608.826" cy="185.782" r="2.82609" fill="url(#paint11_linear_913_2028)"/>
<path d="M618.8 139L609 126C616.674 127.008 621.203 127.142 630 126L618.8 139Z" fill="#D9D9D9"/>
<path d="M602.308 147.995L627.567 129.757C628.346 129.194 629.379 129.946 629.072 130.857C625.96 140.094 623.03 145.776 623.796 153.026C623.871 153.732 623.242 154.332 622.548 154.179L602.677 149.782C601.834 149.595 601.608 148.5 602.308 147.995Z" fill="#EAEAEA" stroke="#D9D9D9" stroke-width="3"/>
<path d="M603 119H612V130H603V119Z" fill="#E3E2E2"/>
<path d="M627 119H636V130H627V119Z" fill="#E3E2E2"/>
<path d="M594.5 35.0022C598.509 31.586 601.482 32.0185 607.376 34.9405C607.457 34.9808 607.545 35.0109 607.634 35.0281L620.307 37.4706C620.434 37.4952 620.565 37.4947 620.693 37.4692L632.825 35.0374C632.941 35.0141 633.054 34.9687 633.155 34.9072C639.183 31.2394 641.905 32.1864 646.5 35.0022" stroke="#6FB26C" stroke-width="3"/>
<path d="M594.5 24.4927C598.518 22.4439 601.495 22.7084 607.415 24.4674C607.471 24.484 607.529 24.4961 607.587 24.5028L620.383 25.9787C620.461 25.9877 620.539 25.9875 620.617 25.9782L632.883 24.5067C632.961 24.4974 633.039 24.4784 633.112 24.4516C639.17 22.2382 641.894 22.8036 646.5 24.4927" stroke="#6FB26C" stroke-width="3"/>
<rect x="88.9058" y="139.117" width="51.5161" height="27" transform="rotate(41.2123 88.9058 139.117)" fill="#D9D9D9"/>
<rect x="88.9058" y="139.117" width="51.5161" height="27" transform="rotate(41.2123 88.9058 139.117)" fill="url(#paint12_linear_913_2028)"/>
<rect x="88.9058" y="139.117" width="51.5161" height="27" transform="rotate(41.2123 88.9058 139.117)" stroke="black" stroke-width="3"/>
<rect x="58.5" y="77.5" width="21" height="73" fill="#7D5B2E" stroke="black" stroke-width="3"/>
<mask id="path-53-outside-4_913_2028" maskUnits="userSpaceOnUse" x="0" y="0" width="138" height="98" fill="black">
<rect fill="white" width="138" height="98"/>
<path d="M135 95H3V3H135V95Z"/>
</mask>
<path d="M135 95H3V3H135V95Z" fill="#EAEAEA"/>
<path d="M135 95V98H138V95H135ZM3 95H0V98H3V95ZM3 3V0H0V3H3ZM135 3H138V0H135V3ZM135 95V92H3V95V98H135V95ZM3 95H6V3H3H0V95H3ZM3 3V6H135V3V0H3V3ZM135 3H132V95H135H138V3H135Z" fill="black" mask="url(#path-53-outside-4_913_2028)"/>
<path d="M59.6322 32V57.6H67.0322V64H44.5522V57.6H52.8722V36.12L54.1522 36.72L44.5522 43.04V35.84L50.6722 32H59.6322ZM83 64.76C78.8667 64.76 75.7333 63.3467 73.6 60.52C71.4667 57.6933 70.4 53.52 70.4 48C70.4 42.48 71.4667 38.3067 73.6 35.48C75.7333 32.6533 78.8667 31.24 83 31.24C87.1333 31.24 90.2667 32.6533 92.4 35.48C94.5333 38.3067 95.6 42.48 95.6 48C95.6 53.52 94.5333 57.6933 92.4 60.52C90.2667 63.3467 87.1333 64.76 83 64.76ZM83 58.6C84.9733 58.6 86.44 57.7333 87.4 56C88.36 54.24 88.84 51.5733 88.84 48C88.84 44.4267 88.36 41.7733 87.4 40.04C86.44 38.28 84.9733 37.4 83 37.4C81.0267 37.4 79.56 38.28 78.6 40.04C77.64 41.7733 77.16 44.4267 77.16 48C77.16 51.5733 77.64 54.24 78.6 56C79.56 57.7333 81.0267 58.6 83 58.6ZM75.12 50.84L91.88 38.16V45.16L75.12 57.84V50.84Z" fill="black"/>
<circle cx="69" cy="142" r="19.5" fill="#8CD789" stroke="black" stroke-width="3"/>
<rect x="316.906" y="139.117" width="51.5161" height="27" transform="rotate(41.2123 316.906 139.117)" fill="#D9D9D9"/>
<rect x="316.906" y="139.117" width="51.5161" height="27" transform="rotate(41.2123 316.906 139.117)" fill="#8CD789"/>
<rect x="316.906" y="139.117" width="51.5161" height="27" transform="rotate(41.2123 316.906 139.117)" stroke="black" stroke-width="3"/>
<rect x="286.5" y="77.5" width="21" height="73" fill="#7D5B2E" stroke="black" stroke-width="3"/>
<mask id="path-59-outside-5_913_2028" maskUnits="userSpaceOnUse" x="228" y="0" width="138" height="98" fill="black">
<rect fill="white" x="228" width="138" height="98"/>
<path d="M363 95H231V3H363V95Z"/>
</mask>
<path d="M363 95H231V3H363V95Z" fill="#EAEAEA"/>
<path d="M363 95V98H366V95H363ZM231 95H228V98H231V95ZM231 3V0H228V3H231ZM363 3H366V0H363V3ZM363 95V92H231V95V98H363V95ZM231 95H234V3H231H228V95H231ZM231 3V6H363V3V0H231V3ZM363 3H360V95H363H366V3H363Z" fill="black" mask="url(#path-59-outside-5_913_2028)"/>
<path d="M287.632 32V57.6H295.032V64H272.552V57.6H280.872V36.12L282.152 36.72L272.552 43.04V35.84L278.672 32H287.632ZM311 64.76C306.867 64.76 303.733 63.3467 301.6 60.52C299.467 57.6933 298.4 53.52 298.4 48C298.4 42.48 299.467 38.3067 301.6 35.48C303.733 32.6533 306.867 31.24 311 31.24C315.133 31.24 318.267 32.6533 320.4 35.48C322.533 38.3067 323.6 42.48 323.6 48C323.6 53.52 322.533 57.6933 320.4 60.52C318.267 63.3467 315.133 64.76 311 64.76ZM311 58.6C312.973 58.6 314.44 57.7333 315.4 56C316.36 54.24 316.84 51.5733 316.84 48C316.84 44.4267 316.36 41.7733 315.4 40.04C314.44 38.28 312.973 37.4 311 37.4C309.027 37.4 307.56 38.28 306.6 40.04C305.64 41.7733 305.16 44.4267 305.16 48C305.16 51.5733 305.64 54.24 306.6 56C307.56 57.7333 309.027 58.6 311 58.6ZM303.12 50.84L319.88 38.16V45.16L303.12 57.84V50.84Z" fill="black"/>
<circle cx="297" cy="142" r="19.5" fill="#8CD789" stroke="black" stroke-width="3"/>
<rect x="544.906" y="139.117" width="51.5161" height="27" transform="rotate(41.2123 544.906 139.117)" fill="#D9D9D9"/>
<rect x="544.906" y="139.117" width="51.5161" height="27" transform="rotate(41.2123 544.906 139.117)" fill="#8CD789"/>
<rect x="544.906" y="139.117" width="51.5161" height="27" transform="rotate(41.2123 544.906 139.117)" stroke="black" stroke-width="3"/>
<rect x="514.5" y="77.5" width="21" height="73" fill="#7D5B2E" stroke="black" stroke-width="3"/>
<mask id="path-65-outside-6_913_2028" maskUnits="userSpaceOnUse" x="456" y="0" width="138" height="98" fill="black">
<rect fill="white" x="456" width="138" height="98"/>
<path d="M591 95H459V3H591V95Z"/>
</mask>
<path d="M591 95H459V3H591V95Z" fill="#EAEAEA"/>
<path d="M591 95V98H594V95H591ZM459 95H456V98H459V95ZM459 3V0H456V3H459ZM591 3H594V0H591V3ZM591 95V92H459V95V98H591V95ZM459 95H462V3H459H456V95H459ZM459 3V6H591V3V0H459V3ZM591 3H588V95H591H594V3H591Z" fill="black" mask="url(#path-65-outside-6_913_2028)"/>
<path d="M515.632 32V57.6H523.032V64H500.552V57.6H508.872V36.12L510.152 36.72L500.552 43.04V35.84L506.672 32H515.632ZM539 64.76C534.867 64.76 531.733 63.3467 529.6 60.52C527.467 57.6933 526.4 53.52 526.4 48C526.4 42.48 527.467 38.3067 529.6 35.48C531.733 32.6533 534.867 31.24 539 31.24C543.133 31.24 546.267 32.6533 548.4 35.48C550.533 38.3067 551.6 42.48 551.6 48C551.6 53.52 550.533 57.6933 548.4 60.52C546.267 63.3467 543.133 64.76 539 64.76ZM539 58.6C540.973 58.6 542.44 57.7333 543.4 56C544.36 54.24 544.84 51.5733 544.84 48C544.84 44.4267 544.36 41.7733 543.4 40.04C542.44 38.28 540.973 37.4 539 37.4C537.027 37.4 535.56 38.28 534.6 40.04C533.64 41.7733 533.16 44.4267 533.16 48C533.16 51.5733 533.64 54.24 534.6 56C535.56 57.7333 537.027 58.6 539 58.6ZM531.12 50.84L547.88 38.16V45.16L531.12 57.84V50.84Z" fill="black"/>
<circle cx="525" cy="142" r="19.5" fill="#8CD789" stroke="black" stroke-width="3"/>
<defs>
<linearGradient id="paint0_linear_913_2028" x1="164" y1="118.151" x2="164" y2="192" gradientUnits="userSpaceOnUse">
<stop stop-color="#484848"/>
<stop offset="1" stop-color="#111111"/>
</linearGradient>
<linearGradient id="paint1_linear_913_2028" x1="392" y1="118.151" x2="392" y2="192" gradientUnits="userSpaceOnUse">
<stop stop-color="#484848"/>
<stop offset="1" stop-color="#242424"/>
</linearGradient>
<linearGradient id="paint2_linear_913_2028" x1="392" y1="158" x2="392" y2="192" gradientUnits="userSpaceOnUse">
<stop stop-color="#F87777"/>
<stop offset="1" stop-color="#FFC90E"/>
</linearGradient>
<linearGradient id="paint3_linear_913_2028" x1="620" y1="118.151" x2="620" y2="192" gradientUnits="userSpaceOnUse">
<stop stop-color="#EAEAEA"/>
<stop offset="1" stop-color="#E1E1E1"/>
</linearGradient>
<linearGradient id="paint4_linear_913_2028" x1="630.174" y1="133" x2="630.174" y2="138.652" gradientUnits="userSpaceOnUse">
<stop stop-color="#EAEAEA"/>
<stop offset="1" stop-color="#D3D3D3"/>
</linearGradient>
<linearGradient id="paint5_linear_913_2028" x1="630.174" y1="149.652" x2="630.174" y2="155.305" gradientUnits="userSpaceOnUse">
<stop stop-color="#EAEAEA"/>
<stop offset="1" stop-color="#D3D3D3"/>
</linearGradient>
<linearGradient id="paint6_linear_913_2028" x1="630.174" y1="166.305" x2="630.174" y2="171.957" gradientUnits="userSpaceOnUse">
<stop stop-color="#EAEAEA"/>
<stop offset="1" stop-color="#D3D3D3"/>
</linearGradient>
<linearGradient id="paint7_linear_913_2028" x1="630.174" y1="182.956" x2="630.174" y2="188.608" gradientUnits="userSpaceOnUse">
<stop stop-color="#EAEAEA"/>
<stop offset="1" stop-color="#D3D3D3"/>
</linearGradient>
<linearGradient id="paint8_linear_913_2028" x1="608.826" y1="133" x2="608.826" y2="138.652" gradientUnits="userSpaceOnUse">
<stop stop-color="#EAEAEA"/>
<stop offset="1" stop-color="#D3D3D3"/>
</linearGradient>
<linearGradient id="paint9_linear_913_2028" x1="608.826" y1="149.652" x2="608.826" y2="155.305" gradientUnits="userSpaceOnUse">
<stop stop-color="#EAEAEA"/>
<stop offset="1" stop-color="#D3D3D3"/>
</linearGradient>
<linearGradient id="paint10_linear_913_2028" x1="608.826" y1="166.305" x2="608.826" y2="171.957" gradientUnits="userSpaceOnUse">
<stop stop-color="#EAEAEA"/>
<stop offset="1" stop-color="#D3D3D3"/>
</linearGradient>
<linearGradient id="paint11_linear_913_2028" x1="608.826" y1="182.956" x2="608.826" y2="188.608" gradientUnits="userSpaceOnUse">
<stop stop-color="#EAEAEA"/>
<stop offset="1" stop-color="#D3D3D3"/>
</linearGradient>
<linearGradient id="paint12_linear_913_2028" x1="116.024" y1="137" x2="116.024" y2="167" gradientUnits="userSpaceOnUse">
<stop stop-color="#484848"/>
<stop offset="1" stop-color="#111111"/>
</linearGradient>
</defs>
</svg>
