<svg width="167" height="44" viewBox="0 0 167 44" fill="none" xmlns="http://www.w3.org/2000/svg">
<rect width="167" height="44" rx="4" fill="#4E4E4E" style="mix-blend-mode:multiply"/>
<path d="M15.6 28.256C14.0427 28.256 12.8747 27.7013 12.096 26.592C11.3173 25.4827 10.928 23.8187 10.928 21.6C10.928 19.3813 11.3173 17.7173 12.096 16.608C12.8747 15.4987 14.0427 14.944 15.6 14.944C17.1573 14.944 18.3253 15.4987 19.104 16.608C19.8827 17.7173 20.272 19.3813 20.272 21.6C20.272 23.8187 19.8827 25.4827 19.104 26.592C18.3253 27.7013 17.1573 28.256 15.6 28.256ZM15.6 26.544C16.5813 26.544 17.3013 26.144 17.76 25.344C18.2187 24.544 18.448 23.296 18.448 21.6C18.448 19.904 18.2187 18.656 17.76 17.856C17.3013 17.056 16.5813 16.656 15.6 16.656C14.6187 16.656 13.8987 17.056 13.44 17.856C12.9813 18.656 12.752 19.904 12.752 21.6C12.752 23.296 12.9813 24.544 13.44 25.344C13.8987 26.144 14.6187 26.544 15.6 26.544ZM12.224 23.088L18.912 18.032V20.112L12.224 25.168V23.088Z" fill="white"/>
<path d="M27.376 25.056C27.5253 25.5573 27.7973 25.9413 28.192 26.208C28.5867 26.4747 29.0933 26.608 29.712 26.608C30.352 26.608 30.8427 26.496 31.184 26.272C31.5253 26.0373 31.696 25.7067 31.696 25.28C31.696 24.992 31.5573 24.752 31.28 24.56C31.0027 24.368 30.592 24.2347 30.048 24.16L28.88 23.984C27.8347 23.824 27.0613 23.5147 26.56 23.056C26.0587 22.5973 25.808 21.9573 25.808 21.136C25.808 20.208 26.1493 19.4773 26.832 18.944C27.5253 18.4107 28.4747 18.144 29.68 18.144C30.9067 18.144 31.8773 18.4427 32.592 19.04C33.3067 19.6373 33.6853 20.4693 33.728 21.536H32.128C31.9787 20.9707 31.696 20.5387 31.28 20.24C30.864 19.9413 30.32 19.792 29.648 19.792C28.976 19.792 28.4587 19.9093 28.096 20.144C27.7333 20.368 27.552 20.6933 27.552 21.12C27.552 21.408 27.6907 21.648 27.968 21.84C28.2453 22.032 28.656 22.1653 29.2 22.24L30.368 22.416C31.424 22.576 32.1973 22.8853 32.688 23.344C33.1893 23.8027 33.44 24.4427 33.44 25.264C33.44 25.8827 33.2853 26.416 32.976 26.864C32.6773 27.312 32.2507 27.6587 31.696 27.904C31.1413 28.1387 30.4747 28.256 29.696 28.256C28.5013 28.256 27.5573 27.9733 26.864 27.408C26.1813 26.8427 25.808 26.0587 25.744 25.056H27.376Z" fill="white"/>
<path d="M53.392 18.4V28H51.632V27.28H51.152C50.9067 27.5893 50.592 27.8293 50.208 28C49.8347 28.1707 49.4133 28.256 48.944 28.256C48.2827 28.256 47.7013 28.1067 47.2 27.808C46.7093 27.5093 46.3253 27.088 46.048 26.544C45.7707 26 45.632 25.36 45.632 24.624V18.4H47.392V24.144C47.392 24.944 47.568 25.552 47.92 25.968C48.2827 26.3733 48.8107 26.576 49.504 26.576C50.1973 26.576 50.7253 26.3733 51.088 25.968C51.4507 25.552 51.632 24.944 51.632 24.144V18.4H53.392ZM57.0111 28V18.4H58.7711V19.12H59.2511C59.4965 18.8107 59.8111 18.5707 60.1951 18.4C60.5791 18.2293 61.0005 18.144 61.4591 18.144C62.1311 18.144 62.7125 18.2933 63.2031 18.592C63.6938 18.8907 64.0778 19.312 64.3551 19.856C64.6325 20.4 64.7711 21.04 64.7711 21.776V28H63.0111V22.256C63.0111 21.456 62.8298 20.8533 62.4671 20.448C62.1151 20.032 61.5925 19.824 60.8991 19.824C60.2058 19.824 59.6778 20.032 59.3151 20.448C58.9525 20.8533 58.7711 21.456 58.7711 22.256V28H57.0111ZM71.5743 15.904V18.4H75.8943V20.048H71.5743V24.848C71.5743 25.4133 71.6916 25.8507 71.9263 26.16C72.1609 26.4587 72.5023 26.608 72.9503 26.608C73.4196 26.608 73.7823 26.448 74.0383 26.128C74.3049 25.7973 74.5023 25.3013 74.6302 24.64H76.1823C76.1289 25.8133 75.8196 26.7093 75.2543 27.328C74.6889 27.9467 73.8996 28.256 72.8863 28.256C71.9049 28.256 71.1476 27.9627 70.6143 27.376C70.0809 26.7893 69.8143 25.968 69.8143 24.912V20.048H67.7023V18.4H69.8143V15.904H71.5743ZM79.9294 18.4H84.6014V26.352H87.4974V28H79.9294V26.352H82.8414V20.048H79.9294V18.4ZM83.5934 16.976C83.1774 16.976 82.852 16.864 82.6174 16.64C82.3827 16.4053 82.2654 16.0853 82.2654 15.68C82.2654 15.2747 82.3827 14.96 82.6174 14.736C82.852 14.5013 83.1774 14.384 83.5934 14.384C84.0094 14.384 84.3347 14.5013 84.5694 14.736C84.804 14.96 84.9214 15.2747 84.9214 15.68C84.9214 16.0853 84.804 16.4053 84.5694 16.64C84.3347 16.864 84.0094 16.976 83.5934 16.976ZM90.8925 14.432H95.5645V26.352H98.4605V28H90.8925V26.352H93.8045V16.08H90.8925V14.432ZM117.491 28.256C116.979 28.256 116.509 28.1547 116.083 27.952C115.656 27.7387 115.336 27.4613 115.123 27.12H114.643V28H112.883V14.432H114.643V19.28H115.123C115.336 18.928 115.656 18.6507 116.083 18.448C116.509 18.2453 116.979 18.144 117.491 18.144C118.291 18.144 118.984 18.352 119.571 18.768C120.157 19.1733 120.611 19.7547 120.931 20.512C121.251 21.2693 121.411 22.1653 121.411 23.2C121.411 24.2347 121.251 25.1307 120.931 25.888C120.611 26.6453 120.157 27.232 119.571 27.648C118.984 28.0533 118.291 28.256 117.491 28.256ZM117.123 26.608C117.923 26.608 118.541 26.3093 118.979 25.712C119.427 25.1147 119.651 24.2773 119.651 23.2C119.651 22.1227 119.427 21.2853 118.979 20.688C118.541 20.0907 117.923 19.792 117.123 19.792C116.312 19.792 115.683 20.0907 115.235 20.688C114.797 21.2853 114.579 22.1227 114.579 23.2C114.579 24.2773 114.797 25.1147 115.235 25.712C115.683 26.3093 116.312 26.608 117.123 26.608ZM128.022 28.256C127.137 28.256 126.369 28.0533 125.718 27.648C125.067 27.232 124.561 26.6453 124.198 25.888C123.846 25.1307 123.67 24.2347 123.67 23.2C123.67 22.1653 123.846 21.2693 124.198 20.512C124.561 19.7547 125.067 19.1733 125.718 18.768C126.369 18.352 127.137 18.144 128.022 18.144C128.918 18.144 129.686 18.352 130.326 18.768C130.977 19.1733 131.478 19.7547 131.83 20.512C132.193 21.2693 132.374 22.1653 132.374 23.2C132.374 24.2347 132.193 25.1307 131.83 25.888C131.478 26.6453 130.977 27.232 130.326 27.648C129.686 28.0533 128.918 28.256 128.022 28.256ZM128.022 26.608C128.843 26.608 129.483 26.3093 129.942 25.712C130.401 25.1147 130.63 24.2773 130.63 23.2C130.63 22.1227 130.401 21.2853 129.942 20.688C129.483 20.0907 128.843 19.792 128.022 19.792C127.201 19.792 126.561 20.0907 126.102 20.688C125.643 21.2853 125.414 22.1227 125.414 23.2C125.414 24.2773 125.643 25.1147 126.102 25.712C126.561 26.3093 127.201 26.608 128.022 26.608ZM135.945 18.4H140.617V26.352H143.513V28H135.945V26.352H138.857V20.048H135.945V18.4ZM139.609 16.976C139.193 16.976 138.868 16.864 138.633 16.64C138.398 16.4053 138.281 16.0853 138.281 15.68C138.281 15.2747 138.398 14.96 138.633 14.736C138.868 14.5013 139.193 14.384 139.609 14.384C140.025 14.384 140.35 14.5013 140.585 14.736C140.82 14.96 140.937 15.2747 140.937 15.68C140.937 16.0853 140.82 16.4053 140.585 16.64C140.35 16.864 140.025 16.976 139.609 16.976ZM146.908 14.432H151.58V26.352H154.476V28H146.908V26.352H149.82V16.08H146.908V14.432Z" fill="white"/>
</svg>
