<svg width="114" height="195" viewBox="0 0 114 195" fill="none" xmlns="http://www.w3.org/2000/svg">
<mask id="path-1-outside-1_908_1437" maskUnits="userSpaceOnUse" x="0" y="0" width="114" height="195" fill="black">
<rect fill="white" width="114" height="195"/>
<path d="M57 3C86.8234 3 111 26.4961 111 55.4795C111 79.7375 94.0633 110.686 71.0557 120.134C92.107 126.222 107.5 145.639 107.5 168.651V192H6.5V168.651C6.5 145.639 21.8925 126.222 42.9434 120.134C19.9361 110.686 3.00018 79.7372 3 55.4795C3 26.4961 27.1766 3 57 3Z"/>
</mask>
<path d="M57 3C86.8234 3 111 26.4961 111 55.4795C111 79.7375 94.0633 110.686 71.0557 120.134C92.107 126.222 107.5 145.639 107.5 168.651V192H6.5V168.651C6.5 145.639 21.8925 126.222 42.9434 120.134C19.9361 110.686 3.00018 79.7372 3 55.4795C3 26.4961 27.1766 3 57 3Z" fill="#0A1125"/>
<path d="M57 3V0V0V3ZM111 55.4795L114 55.4795V55.4795H111ZM71.0557 120.134L69.9161 117.359L61.9589 120.626L70.2222 123.016L71.0557 120.134ZM107.5 168.651H110.5V168.651H107.5ZM107.5 192V195H110.5V192H107.5ZM6.5 192H3.5V195H6.5V192ZM6.5 168.651H3.5V168.651H6.5ZM42.9434 120.134L43.7768 123.016L52.0396 120.626L44.0829 117.359L42.9434 120.134ZM3 55.4795H0V55.4795L3 55.4795ZM57 3V6C85.2479 6 108 28.2331 108 55.4795H111H114C114 24.759 88.3989 0 57 0V3ZM111 55.4795L108 55.4795C108 66.9718 103.966 80.2495 97.0775 91.8267C90.1818 103.417 80.6355 112.957 69.9161 117.359L71.0557 120.134L72.1952 122.909C84.4835 117.863 94.9092 107.205 102.234 94.8946C109.566 82.571 114 68.2452 114 55.4795L111 55.4795ZM71.0557 120.134L70.2222 123.016C90.0248 128.742 104.5 147.01 104.5 168.651H107.5H110.5C110.5 144.267 94.1891 123.701 71.8891 117.252L71.0557 120.134ZM107.5 168.651H104.5V192H107.5H110.5V168.651H107.5ZM107.5 192V189H6.5V192V195H107.5V192ZM6.5 192H9.5V168.651H6.5H3.5V192H6.5ZM6.5 168.651H9.5C9.5 147.01 23.9747 128.743 43.7768 123.016L42.9434 120.134L42.1099 117.252C19.8103 123.701 3.5 144.268 3.5 168.651H6.5ZM42.9434 120.134L44.0829 117.359C33.3638 112.957 23.8177 103.416 16.9222 91.8265C10.0343 80.2492 6.00008 66.9716 6 55.4795L3 55.4795L0 55.4795C9.41753e-05 68.245 4.4339 82.5707 11.7658 94.8943C19.0902 107.205 29.5157 117.863 41.8038 122.909L42.9434 120.134ZM3 55.4795H6C6 28.2331 28.7521 6 57 6V3V0C25.6011 4.76837e-07 0 24.759 0 55.4795H3Z" fill="black" mask="url(#path-1-outside-1_908_1437)"/>
<path d="M6.5 168.651C6.5 140.761 29.1096 118.151 57 118.151C84.8904 118.151 107.5 140.761 107.5 168.651V192H6.5V168.651Z" fill="url(#paint0_linear_908_1437)"/>
<ellipse cx="57" cy="123" rx="12.5" ry="5" fill="#539D50"/>
<path d="M111 55.4791C111 84.4625 86.8234 123 57 123C27.1766 123 3 84.4625 3 55.4791C3 26.4957 27.1766 3 57 3C86.8234 3 111 26.4957 111 55.4791Z" fill="#8CD789"/>
<path d="M45.1028 49.9386C50.1152 58.5235 51.3456 73.5059 44.4299 77.5438C38.9845 80.7232 30.1122 76.1688 24.1389 69.8975C21.056 66.6609 19.1307 62.4092 18.842 57.9487C18.475 52.2779 20.4135 48.1422 25.5219 45.1596C32.4375 41.1218 40.0903 41.3536 45.1028 49.9386Z" fill="#0A1125"/>
<path d="M69.8484 49.9386C64.8359 58.5235 63.6056 73.5059 70.5212 77.5438C75.9666 80.7232 84.8389 76.1688 90.8123 69.8975C93.8951 66.6609 95.8205 62.4092 96.1092 57.9487C96.4762 52.2779 94.5376 48.1422 89.4293 45.1596C82.5136 41.1218 74.8609 41.3536 69.8484 49.9386Z" fill="#0A1125"/>
<ellipse cx="37.5" cy="53.3486" rx="3.5" ry="4.5" fill="#D9D9D9"/>
<ellipse cx="87.5" cy="53.3486" rx="3.5" ry="4.5" fill="#D9D9D9"/>
<path d="M57 146.5L44.5 124H69.5L57 146.5Z" fill="#D9D9D9"/>
<path d="M17.5 164.5L7 180.5V192H107V175L102 162.5L92 181.5L80 166L73 179.5L59.5 158L43.5 180.5L34 162.5L23 180.5L17.5 164.5Z" fill="url(#paint1_linear_908_1437)"/>
<path d="M46.5 94H67.5V96.5C67.5 102.299 62.799 107 57 107C51.201 107 46.5 102.299 46.5 96.5V94Z" fill="#0A1125"/>
<defs>
<linearGradient id="paint0_linear_908_1437" x1="57" y1="118.151" x2="57" y2="192" gradientUnits="userSpaceOnUse">
<stop stop-color="#484848"/>
<stop offset="1" stop-color="#242424"/>
</linearGradient>
<linearGradient id="paint1_linear_908_1437" x1="57" y1="158" x2="57" y2="192" gradientUnits="userSpaceOnUse">
<stop stop-color="#F87777"/>
<stop offset="1" stop-color="#FFC90E"/>
</linearGradient>
</defs>
</svg>
