<svg width="65" height="55" viewBox="0 0 65 55" fill="none" xmlns="http://www.w3.org/2000/svg">
<path d="M26.0464 8.14812C28.9208 4.09989 34.7734 4.90905 37.1181 9.28539C40.4513 15.5065 44.993 23.0556 48.7136 25.8752C52.0788 28.4255 56.1158 34.845 59.3226 40.6514C62.1385 45.7498 58.3281 51.7502 52.5038 51.7502H11.8149C6.15549 51.7502 2.27147 46.0283 4.46986 40.8133C9.10952 29.8071 13.9731 19.6412 16.9762 18.5595C19.5254 17.6413 22.5496 13.073 26.0464 8.14812Z" fill="#D9D9D9"/>
<path d="M23.6002 6.41148C27.9877 0.232193 36.5539 1.88071 39.7623 7.86851C41.4054 10.9354 43.3225 14.2844 45.2642 17.1888C47.2586 20.1721 49.0932 22.3989 50.5259 23.4847C52.6078 25.0626 54.6804 27.6382 56.5455 30.3373C58.4547 33.1003 60.3198 36.2521 61.9488 39.2015C65.9557 46.4571 60.429 54.7503 52.5035 54.7503H11.815C4.06152 54.7503 -1.34654 46.8881 1.70562 39.6478C4.03398 34.1245 6.45288 28.7273 8.69195 24.5482C9.80807 22.465 10.9235 20.6018 12.0015 19.1537C12.541 18.4291 13.1131 17.7511 13.7144 17.1869C14.2921 16.6449 15.0439 16.0665 15.9595 15.7367L16.0836 15.68C16.2485 15.5922 16.5379 15.4021 16.9576 15.0199C17.4952 14.5303 18.1133 13.8496 18.8218 12.972C20.2571 11.1944 21.8036 8.94167 23.6002 6.41148ZM37.1177 9.2855C34.773 4.90941 28.9209 4.10001 26.0464 8.14781L23.5123 11.724C21.0671 15.1294 18.888 17.8713 16.9761 18.5599C13.973 19.6418 9.10988 29.8078 4.47027 40.8138L4.37164 41.058C2.42468 46.1241 6.12312 51.575 11.5513 51.7464L11.815 51.7503H52.5035C58.2368 51.7503 62.019 45.9358 59.4498 40.891L59.3228 40.6517C56.116 34.8454 52.0787 28.4257 48.7134 25.8753C44.9928 23.0557 40.4509 15.5066 37.1177 9.2855Z" fill="black"/>
<path d="M26.0468 8.14789C28.9211 4.09966 34.7737 4.90882 37.1185 9.28516C40.4516 15.5063 44.9933 23.0554 48.7139 25.875C52.0792 28.4253 56.1161 34.8448 59.323 40.6511C62.1388 45.7495 58.3285 51.75 52.5041 51.75H11.8153C6.15585 51.75 2.27183 46.0281 4.47022 40.8131C9.10988 29.8069 13.9735 19.6409 16.9766 18.5592C19.5258 17.6411 22.5499 13.0728 26.0468 8.14789Z" fill="url(#paint0_linear_860_1177)"/>
<rect x="16.9766" y="26" width="4" height="4" fill="#FFD546"/>
<rect x="29.9766" y="14" width="4" height="4" fill="#FFD546"/>
<rect x="42.9766" y="39" width="4" height="4" fill="#FFD546"/>
<rect x="43.9766" y="31" width="4" height="4" fill="#FFD546"/>
<rect x="20.6777" y="40.1875" width="4" height="4" transform="rotate(38.923 20.6777 40.1875)" fill="#FFD546"/>
<rect x="30.4902" y="30" width="4" height="4" transform="rotate(38.923 30.4902 30)" fill="#99D9EA"/>
<rect x="41.9316" y="22.9658" width="4" height="4" transform="rotate(94.235 41.9316 22.9658)" fill="#99D9EA"/>
<rect x="13.2617" y="37.2949" width="4" height="4" transform="rotate(94.235 13.2617 37.2949)" fill="#99D9EA"/>
<rect x="37.2617" y="43.2949" width="4" height="4" transform="rotate(94.235 37.2617 43.2949)" fill="#99D9EA"/>
<defs>
<linearGradient id="paint0_linear_860_1177" x1="32.476" y1="0" x2="32.476" y2="51.75" gradientUnits="userSpaceOnUse">
<stop stop-color="#FFC90E"/>
<stop offset="1" stop-color="#99D9EA"/>
</linearGradient>
</defs>
</svg>
