<svg width="192" height="196" viewBox="0 0 192 196" fill="none" xmlns="http://www.w3.org/2000/svg">
<rect x="0.5" y="0.5" width="191" height="195" fill="white"/>
<rect x="0.5" y="0.5" width="191" height="195" fill="url(#paint0_linear_904_795)"/>
<rect x="0.5" y="0.5" width="191" height="195" stroke="#95E3C9"/>
<rect x="16.5" y="16.5" width="159" height="43" fill="#95E3C9"/>
<rect x="16.5" y="16.5" width="159" height="43" fill="url(#paint1_linear_904_795)" fill-opacity="0.62"/>
<rect x="16.5" y="16.5" width="159" height="43" fill="#1B6768"/>
<rect x="16.5" y="16.5" width="159" height="43" fill="#95E3C9"/>
<rect x="16.5" y="16.5" width="159" height="43" stroke="white"/>
<path d="M79.372 44.256C77.8467 44.256 76.7 43.7067 75.932 42.608C75.1747 41.4987 74.796 39.8293 74.796 37.6C74.796 35.3707 75.1853 33.7067 75.964 32.608C76.7533 31.4987 77.9373 30.944 79.516 30.944C80.3693 30.944 81.1053 31.1253 81.724 31.488C82.3427 31.8507 82.828 32.384 83.18 33.088C83.5427 33.7813 83.756 34.6293 83.82 35.632H82.14C81.9907 34.6613 81.692 33.9253 81.244 33.424C80.8067 32.912 80.2307 32.656 79.516 32.656C78.524 32.656 77.7933 33.056 77.324 33.856C76.8547 34.656 76.62 35.904 76.62 37.6C76.62 39.296 76.8387 40.544 77.276 41.344C77.724 42.144 78.4227 42.544 79.372 42.544C80.0547 42.544 80.604 42.3093 81.02 41.84C81.436 41.3707 81.7133 40.688 81.852 39.792H83.532C83.468 40.7413 83.2653 41.552 82.924 42.224C82.5827 42.8853 82.108 43.392 81.5 43.744C80.9027 44.0853 80.1933 44.256 79.372 44.256ZM86.5111 44V30.432H88.2711V35.12H88.7511C88.9965 34.8107 89.3111 34.5707 89.6951 34.4C90.0791 34.2293 90.5005 34.144 90.9591 34.144C91.6311 34.144 92.2125 34.2933 92.7031 34.592C93.1938 34.8907 93.5778 35.312 93.8551 35.856C94.1325 36.4 94.2711 37.04 94.2711 37.776V44H92.5111V38.256C92.5111 37.456 92.3298 36.8533 91.9671 36.448C91.6151 36.032 91.0925 35.824 90.3991 35.824C89.7058 35.824 89.1778 36.032 88.8151 36.448C88.4525 36.8533 88.2711 37.456 88.2711 38.256V44H86.5111ZM101.506 44.256C100.621 44.256 99.8529 44.0533 99.2023 43.648C98.5516 43.232 98.0449 42.6453 97.6823 41.888C97.3303 41.1307 97.1543 40.2347 97.1543 39.2C97.1543 38.1653 97.3303 37.2693 97.6823 36.512C98.0449 35.7547 98.5516 35.1733 99.2023 34.768C99.8529 34.352 100.621 34.144 101.506 34.144C102.402 34.144 103.17 34.352 103.81 34.768C104.461 35.1733 104.962 35.7547 105.314 36.512C105.677 37.2693 105.858 38.1653 105.858 39.2C105.858 40.2347 105.677 41.1307 105.314 41.888C104.962 42.6453 104.461 43.232 103.81 43.648C103.17 44.0533 102.402 44.256 101.506 44.256ZM101.506 42.608C102.328 42.608 102.968 42.3093 103.426 41.712C103.885 41.1147 104.114 40.2773 104.114 39.2C104.114 38.1227 103.885 37.2853 103.426 36.688C102.968 36.0907 102.328 35.792 101.506 35.792C100.685 35.792 100.045 36.0907 99.5863 36.688C99.1276 37.2853 98.8983 38.1227 98.8983 39.2C98.8983 40.2773 99.1276 41.1147 99.5863 41.712C100.045 42.3093 100.685 42.608 101.506 42.608ZM108.773 47.2V34.4H110.533V35.28H111.013C111.227 34.928 111.547 34.6507 111.973 34.448C112.4 34.2453 112.869 34.144 113.381 34.144C114.181 34.144 114.875 34.352 115.461 34.768C116.048 35.1733 116.501 35.7547 116.821 36.512C117.141 37.2693 117.301 38.1653 117.301 39.2C117.301 40.2347 117.141 41.1307 116.821 41.888C116.501 42.6453 116.048 43.232 115.461 43.648C114.875 44.0533 114.181 44.256 113.381 44.256C112.869 44.256 112.4 44.1547 111.973 43.952C111.547 43.7387 111.227 43.4613 111.013 43.12H110.533V47.2H108.773ZM113.013 42.608C113.813 42.608 114.432 42.3093 114.869 41.712C115.317 41.1147 115.541 40.2773 115.541 39.2C115.541 38.1227 115.317 37.2853 114.869 36.688C114.432 36.0907 113.813 35.792 113.013 35.792C112.203 35.792 111.573 36.0907 111.125 36.688C110.688 37.2853 110.469 38.1227 110.469 39.2C110.469 40.2773 110.688 41.1147 111.125 41.712C111.573 42.3093 112.203 42.608 113.013 42.608Z" fill="#1E4C42"/>
<rect x="16.5" y="76.5" width="159" height="43" fill="#95E3C9"/>
<rect x="16.5" y="76.5" width="159" height="43" fill="url(#paint2_linear_904_795)" fill-opacity="0.62"/>
<rect x="16.5" y="76.5" width="159" height="43" fill="#1B6768"/>
<rect x="16.5" y="76.5" width="159" height="43" fill="#95E3C9"/>
<rect x="16.5" y="76.5" width="159" height="43" stroke="white"/>
<path d="M70.604 100.736C70.7853 101.323 71.0947 101.771 71.532 102.08C71.9693 102.389 72.5293 102.544 73.212 102.544C73.9587 102.544 74.5453 102.357 74.972 101.984C75.3987 101.611 75.612 101.093 75.612 100.432C75.612 99.952 75.452 99.5573 75.132 99.248C74.8227 98.928 74.3747 98.7253 73.788 98.64L72.38 98.432C71.2707 98.24 70.4333 97.84 69.868 97.232C69.3027 96.624 69.02 95.808 69.02 94.784C69.02 94.0053 69.196 93.3333 69.548 92.768C69.9107 92.192 70.412 91.744 71.052 91.424C71.7027 91.104 72.4547 90.944 73.308 90.944C74.1613 90.944 74.908 91.0987 75.548 91.408C76.188 91.7173 76.6893 92.16 77.052 92.736C77.4253 93.3013 77.6387 93.984 77.692 94.784H75.964C75.7933 94.1013 75.484 93.5787 75.036 93.216C74.588 92.8427 74.012 92.656 73.308 92.656C72.5293 92.656 71.916 92.848 71.468 93.232C71.0307 93.6053 70.812 94.1227 70.812 94.784C70.812 95.2747 70.9667 95.6747 71.276 95.984C71.596 96.2933 72.044 96.496 72.62 96.592L74.028 96.8C75.148 96.9813 75.9907 97.3813 76.556 98C77.1213 98.608 77.404 99.4187 77.404 100.432C77.404 101.211 77.228 101.888 76.876 102.464C76.5347 103.029 76.0493 103.472 75.42 103.792C74.7907 104.101 74.0547 104.256 73.212 104.256C72.3587 104.256 71.612 104.117 70.972 103.84C70.3427 103.552 69.8413 103.147 69.468 102.624C69.1053 102.091 68.9027 101.461 68.86 100.736H70.604ZM80.7831 90.432H85.4551V102.352H88.3511V104H80.7831V102.352H83.6951V92.08H80.7831V90.432ZM92.2263 94.4H96.8983V102.352H99.7943V104H92.2263V102.352H95.1383V96.048H92.2263V94.4ZM95.8903 92.976C95.4743 92.976 95.1489 92.864 94.9143 92.64C94.6796 92.4053 94.5623 92.0853 94.5623 91.68C94.5623 91.2747 94.6796 90.96 94.9143 90.736C95.1489 90.5013 95.4743 90.384 95.8903 90.384C96.3063 90.384 96.6316 90.5013 96.8663 90.736C97.1009 90.96 97.2183 91.2747 97.2183 91.68C97.2183 92.0853 97.1009 92.4053 96.8663 92.64C96.6316 92.864 96.3063 92.976 95.8903 92.976ZM106.933 104.256C106.059 104.256 105.301 104.053 104.661 103.648C104.021 103.243 103.525 102.667 103.173 101.92C102.821 101.163 102.645 100.272 102.645 99.248C102.645 98.2027 102.827 97.3013 103.189 96.544C103.552 95.776 104.064 95.184 104.725 94.768C105.397 94.352 106.187 94.144 107.093 94.144C107.883 94.144 108.576 94.3093 109.173 94.64C109.771 94.96 110.24 95.4187 110.581 96.016C110.923 96.6027 111.109 97.3013 111.141 98.112H109.525C109.387 97.376 109.099 96.8053 108.661 96.4C108.235 95.9947 107.691 95.792 107.029 95.792C106.187 95.792 105.536 96.096 105.077 96.704C104.619 97.312 104.389 98.16 104.389 99.248C104.389 100.304 104.613 101.131 105.061 101.728C105.509 102.315 106.133 102.608 106.933 102.608C107.531 102.608 108.032 102.432 108.437 102.08C108.853 101.717 109.141 101.216 109.301 100.576H110.917C110.864 101.323 110.661 101.973 110.309 102.528C109.957 103.072 109.488 103.499 108.901 103.808C108.325 104.107 107.669 104.256 106.933 104.256ZM115.177 98.224H120.953L120.361 99.056C120.361 97.9787 120.169 97.1573 119.785 96.592C119.401 96.0267 118.841 95.744 118.105 95.744C117.305 95.744 116.681 96.0427 116.233 96.64C115.785 97.2267 115.561 98.0533 115.561 99.12C115.561 100.261 115.785 101.136 116.233 101.744C116.681 102.352 117.321 102.656 118.153 102.656C118.697 102.656 119.171 102.523 119.577 102.256C119.982 101.979 120.323 101.579 120.601 101.056H122.249C122.089 101.717 121.817 102.288 121.433 102.768C121.059 103.248 120.59 103.616 120.025 103.872C119.47 104.128 118.846 104.256 118.153 104.256C117.257 104.256 116.483 104.053 115.833 103.648C115.193 103.243 114.702 102.656 114.361 101.888C114.019 101.12 113.849 100.197 113.849 99.12C113.849 98.096 114.019 97.216 114.361 96.48C114.713 95.7333 115.209 95.1573 115.849 94.752C116.489 94.3467 117.241 94.144 118.105 94.144C118.926 94.144 119.625 94.336 120.201 94.72C120.777 95.104 121.219 95.664 121.529 96.4C121.838 97.1253 121.993 98.0053 121.993 99.04C121.993 99.1573 121.987 99.28 121.977 99.408C121.977 99.536 121.971 99.6587 121.961 99.776H115.177V98.224Z" fill="#1E4C42"/>
<rect x="16.5" y="136.5" width="159" height="43" fill="#95E3C9"/>
<rect x="16.5" y="136.5" width="159" height="43" fill="url(#paint3_linear_904_795)" fill-opacity="0.62"/>
<rect x="16.5" y="136.5" width="159" height="43" fill="#1B6768"/>
<rect x="16.5" y="136.5" width="159" height="43" fill="#95E3C9"/>
<rect x="16.5" y="136.5" width="159" height="43" stroke="white"/>
<path d="M68.668 164V151.2H71.564L73.068 158.608H73.244L74.732 151.2H77.532V164H75.868V156.64L75.932 152.48H75.74L74.316 159.68H71.9L70.46 152.48H70.268L70.332 156.64V164H68.668ZM81.0231 154.4H85.6951V162.352H88.5911V164H81.0231V162.352H83.9351V156.048H81.0231V154.4ZM84.6871 152.976C84.2711 152.976 83.9458 152.864 83.7111 152.64C83.4765 152.405 83.3591 152.085 83.3591 151.68C83.3591 151.275 83.4765 150.96 83.7111 150.736C83.9458 150.501 84.2711 150.384 84.6871 150.384C85.1031 150.384 85.4285 150.501 85.6631 150.736C85.8978 150.96 86.0151 151.275 86.0151 151.68C86.0151 152.085 85.8978 152.405 85.6631 152.64C85.4285 152.864 85.1031 152.976 84.6871 152.976ZM91.7143 164V154.4H93.4743V155.12H93.9543C94.1996 154.811 94.5143 154.571 94.8983 154.4C95.2823 154.229 95.7036 154.144 96.1623 154.144C96.8343 154.144 97.4156 154.293 97.9062 154.592C98.3969 154.891 98.7809 155.312 99.0583 155.856C99.3356 156.4 99.4743 157.04 99.4743 157.776V164H97.7143V158.256C97.7143 157.456 97.5329 156.853 97.1703 156.448C96.8183 156.032 96.2956 155.824 95.6023 155.824C94.9089 155.824 94.3809 156.032 94.0182 156.448C93.6556 156.853 93.4743 157.456 93.4743 158.256V164H91.7143ZM106.933 164.256C106.059 164.256 105.301 164.053 104.661 163.648C104.021 163.243 103.525 162.667 103.173 161.92C102.821 161.163 102.645 160.272 102.645 159.248C102.645 158.203 102.827 157.301 103.189 156.544C103.552 155.776 104.064 155.184 104.725 154.768C105.397 154.352 106.187 154.144 107.093 154.144C107.883 154.144 108.576 154.309 109.173 154.64C109.771 154.96 110.24 155.419 110.581 156.016C110.923 156.603 111.109 157.301 111.141 158.112H109.525C109.387 157.376 109.099 156.805 108.661 156.4C108.235 155.995 107.691 155.792 107.029 155.792C106.187 155.792 105.536 156.096 105.077 156.704C104.619 157.312 104.389 158.16 104.389 159.248C104.389 160.304 104.613 161.131 105.061 161.728C105.509 162.315 106.133 162.608 106.933 162.608C107.531 162.608 108.032 162.432 108.437 162.08C108.853 161.717 109.141 161.216 109.301 160.576H110.917C110.864 161.323 110.661 161.973 110.309 162.528C109.957 163.072 109.488 163.499 108.901 163.808C108.325 164.107 107.669 164.256 106.933 164.256ZM115.177 158.224H120.953L120.361 159.056C120.361 157.979 120.169 157.157 119.785 156.592C119.401 156.027 118.841 155.744 118.105 155.744C117.305 155.744 116.681 156.043 116.233 156.64C115.785 157.227 115.561 158.053 115.561 159.12C115.561 160.261 115.785 161.136 116.233 161.744C116.681 162.352 117.321 162.656 118.153 162.656C118.697 162.656 119.171 162.523 119.577 162.256C119.982 161.979 120.323 161.579 120.601 161.056H122.249C122.089 161.717 121.817 162.288 121.433 162.768C121.059 163.248 120.59 163.616 120.025 163.872C119.47 164.128 118.846 164.256 118.153 164.256C117.257 164.256 116.483 164.053 115.833 163.648C115.193 163.243 114.702 162.656 114.361 161.888C114.019 161.12 113.849 160.197 113.849 159.12C113.849 158.096 114.019 157.216 114.361 156.48C114.713 155.733 115.209 155.157 115.849 154.752C116.489 154.347 117.241 154.144 118.105 154.144C118.926 154.144 119.625 154.336 120.201 154.72C120.777 155.104 121.219 155.664 121.529 156.4C121.838 157.125 121.993 158.005 121.993 159.04C121.993 159.157 121.987 159.28 121.977 159.408C121.977 159.536 121.971 159.659 121.961 159.776H115.177V158.224Z" fill="#1E4C42"/>
<defs>
<linearGradient id="paint0_linear_904_795" x1="96" y1="0" x2="96" y2="196" gradientUnits="userSpaceOnUse">
<stop stop-color="#006C7C" stop-opacity="0.78"/>
<stop offset="1" stop-color="#001E34" stop-opacity="0.86"/>
</linearGradient>
<linearGradient id="paint1_linear_904_795" x1="96" y1="16" x2="96" y2="60" gradientUnits="userSpaceOnUse">
<stop stop-color="#3357E1"/>
<stop offset="0.144677" stop-color="#4847E1"/>
<stop offset="1" stop-color="#196DE7"/>
</linearGradient>
<linearGradient id="paint2_linear_904_795" x1="96" y1="76" x2="96" y2="120" gradientUnits="userSpaceOnUse">
<stop stop-color="#3357E1"/>
<stop offset="0.144677" stop-color="#4847E1"/>
<stop offset="1" stop-color="#196DE7"/>
</linearGradient>
<linearGradient id="paint3_linear_904_795" x1="96" y1="136" x2="96" y2="180" gradientUnits="userSpaceOnUse">
<stop stop-color="#3357E1"/>
<stop offset="0.144677" stop-color="#4847E1"/>
<stop offset="1" stop-color="#196DE7"/>
</linearGradient>
</defs>
</svg>
