<svg width="181" height="176" viewBox="0 0 181 176" fill="none" xmlns="http://www.w3.org/2000/svg">
<mask id="path-1-outside-1_866_1827" maskUnits="userSpaceOnUse" x="-0.173828" y="-0.173828" width="181" height="176" fill="black">
<rect fill="white" x="-0.173828" y="-0.173828" width="181" height="176"/>
<path fill-rule="evenodd" clip-rule="evenodd" d="M90.3257 3.82617C130.126 3.82617 162.391 12.9635 162.391 24.2344L162.39 28.6963C167.924 28.5426 172.12 29.4344 174.563 31.4229C175.876 32.4914 176.752 33.9501 176.822 35.6748C176.889 37.3388 176.188 38.837 175.206 40.0381C173.274 42.3989 169.788 44.2307 165.466 45.2148C164.495 45.436 163.468 45.6137 162.39 45.75V148.924C162.39 159.279 154.624 168.028 144.319 169.044C104.534 172.964 76.128 172.877 36.3863 169.013C26.0582 168.008 18.2603 159.25 18.2603 148.873V45.75C17.1824 45.6137 16.1559 45.4359 15.1851 45.2148C10.8634 44.2307 7.37768 42.3989 5.44586 40.0381C4.4632 38.837 3.76348 37.3387 3.83062 35.6748C3.90033 33.9502 4.77581 32.4914 6.08843 31.4229C8.53124 29.4346 12.7268 28.5428 18.2603 28.6963V24.2334H18.2613C18.2613 23.7054 18.3321 23.182 18.4712 22.6641C18.5641 22.3184 18.6875 21.9754 18.8404 21.6348C18.8786 21.5496 18.9186 21.4647 18.9605 21.3799C19.0443 21.2104 19.1346 21.0412 19.233 20.873C19.3313 20.7049 19.4376 20.5378 19.5503 20.3711C19.6634 20.2041 19.7834 20.0376 19.9107 19.8721C20.0377 19.7069 20.172 19.5426 20.313 19.3789C20.4542 19.2151 20.6023 19.0519 20.7574 18.8896C20.8347 18.8087 20.9139 18.728 20.9947 18.6475C21.4803 18.1632 22.0271 17.6857 22.6334 17.2168C24.8561 15.4977 27.8724 13.8869 31.5562 12.4199C32.561 12.0198 33.6157 11.6309 34.7173 11.2529C37.2874 10.371 40.1139 9.5511 43.1646 8.80273C44.0362 8.58892 44.9261 8.38066 45.8336 8.17871C46.7411 7.97674 47.6661 7.7805 48.608 7.59082C50.4917 7.21147 52.4427 6.8579 54.4546 6.53027C55.9637 6.28453 57.5072 6.05383 59.0826 5.83887C60.6577 5.62393 62.2647 5.42491 63.9009 5.24219C64.992 5.12035 66.0961 5.00542 67.2125 4.89844C68.8869 4.73798 70.5889 4.59458 72.316 4.46875C72.8917 4.4268 73.4701 4.38662 74.0513 4.34863C77.5378 4.12072 81.1211 3.9646 84.7808 3.88574C86.6109 3.84631 88.46 3.82617 90.3257 3.82617ZM18.1861 33.7988C12.9169 33.6439 10.2841 34.5874 9.31011 35.3799C9.09799 35.5525 9.00578 35.6855 8.96832 35.7539C8.93496 35.815 8.9285 35.8514 8.9273 35.8809C8.92496 35.9412 8.94274 36.257 9.3941 36.8086C10.3326 37.9553 12.5883 39.3919 16.3179 40.2412C16.9323 40.3811 17.5804 40.5011 18.2603 40.6025V31.2812L18.1861 33.7988ZM162.39 40.6025C163.071 40.501 163.72 40.3812 164.335 40.2412C168.064 39.3919 170.319 37.9552 171.257 36.8086C171.709 36.2568 171.727 35.9412 171.724 35.8809C171.723 35.8514 171.717 35.8151 171.683 35.7539C171.646 35.6855 171.554 35.5525 171.342 35.3799C170.369 34.5874 167.736 33.6439 162.466 33.7988L162.39 31.2314V40.6025Z"/>
</mask>
<path fill-rule="evenodd" clip-rule="evenodd" d="M90.3257 3.82617C130.126 3.82617 162.391 12.9635 162.391 24.2344L162.39 28.6963C167.924 28.5426 172.12 29.4344 174.563 31.4229C175.876 32.4914 176.752 33.9501 176.822 35.6748C176.889 37.3388 176.188 38.837 175.206 40.0381C173.274 42.3989 169.788 44.2307 165.466 45.2148C164.495 45.436 163.468 45.6137 162.39 45.75V148.924C162.39 159.279 154.624 168.028 144.319 169.044C104.534 172.964 76.128 172.877 36.3863 169.013C26.0582 168.008 18.2603 159.25 18.2603 148.873V45.75C17.1824 45.6137 16.1559 45.4359 15.1851 45.2148C10.8634 44.2307 7.37768 42.3989 5.44586 40.0381C4.4632 38.837 3.76348 37.3387 3.83062 35.6748C3.90033 33.9502 4.77581 32.4914 6.08843 31.4229C8.53124 29.4346 12.7268 28.5428 18.2603 28.6963V24.2334H18.2613C18.2613 23.7054 18.3321 23.182 18.4712 22.6641C18.5641 22.3184 18.6875 21.9754 18.8404 21.6348C18.8786 21.5496 18.9186 21.4647 18.9605 21.3799C19.0443 21.2104 19.1346 21.0412 19.233 20.873C19.3313 20.7049 19.4376 20.5378 19.5503 20.3711C19.6634 20.2041 19.7834 20.0376 19.9107 19.8721C20.0377 19.7069 20.172 19.5426 20.313 19.3789C20.4542 19.2151 20.6023 19.0519 20.7574 18.8896C20.8347 18.8087 20.9139 18.728 20.9947 18.6475C21.4803 18.1632 22.0271 17.6857 22.6334 17.2168C24.8561 15.4977 27.8724 13.8869 31.5562 12.4199C32.561 12.0198 33.6157 11.6309 34.7173 11.2529C37.2874 10.371 40.1139 9.5511 43.1646 8.80273C44.0362 8.58892 44.9261 8.38066 45.8336 8.17871C46.7411 7.97674 47.6661 7.7805 48.608 7.59082C50.4917 7.21147 52.4427 6.8579 54.4546 6.53027C55.9637 6.28453 57.5072 6.05383 59.0826 5.83887C60.6577 5.62393 62.2647 5.42491 63.9009 5.24219C64.992 5.12035 66.0961 5.00542 67.2125 4.89844C68.8869 4.73798 70.5889 4.59458 72.316 4.46875C72.8917 4.4268 73.4701 4.38662 74.0513 4.34863C77.5378 4.12072 81.1211 3.9646 84.7808 3.88574C86.6109 3.84631 88.46 3.82617 90.3257 3.82617ZM18.1861 33.7988C12.9169 33.6439 10.2841 34.5874 9.31011 35.3799C9.09799 35.5525 9.00578 35.6855 8.96832 35.7539C8.93496 35.815 8.9285 35.8514 8.9273 35.8809C8.92496 35.9412 8.94274 36.257 9.3941 36.8086C10.3326 37.9553 12.5883 39.3919 16.3179 40.2412C16.9323 40.3811 17.5804 40.5011 18.2603 40.6025V31.2812L18.1861 33.7988ZM162.39 40.6025C163.071 40.501 163.72 40.3812 164.335 40.2412C168.064 39.3919 170.319 37.9552 171.257 36.8086C171.709 36.2568 171.727 35.9412 171.724 35.8809C171.723 35.8514 171.717 35.8151 171.683 35.7539C171.646 35.6855 171.554 35.5525 171.342 35.3799C170.369 34.5874 167.736 33.6439 162.466 33.7988L162.39 31.2314V40.6025Z" fill="url(#paint0_linear_866_1827)"/>
<path d="M90.3257 3.82617V-0.000280857V-0.000280857V3.82617ZM162.391 24.2344L166.218 24.2352V24.2344H162.391ZM162.39 28.6963L158.564 28.6955L158.563 32.6305L162.496 32.5213L162.39 28.6963ZM174.563 31.4229L176.979 28.4553L176.979 28.4552L174.563 31.4229ZM176.822 35.6748L180.645 35.5205L180.645 35.5203L176.822 35.6748ZM175.206 40.0381L178.167 42.4614L178.167 42.4612L175.206 40.0381ZM165.466 45.2148L166.316 48.9458L166.316 48.9458L165.466 45.2148ZM162.39 45.75L161.91 41.9537L158.564 42.3767V45.75H162.39ZM162.39 148.924H166.217V148.924H162.39ZM144.319 169.044L144.694 172.852L144.694 172.852L144.319 169.044ZM36.3863 169.013L36.0159 172.821H36.0159L36.3863 169.013ZM18.2603 45.75H22.0868V42.3768L18.7402 41.9538L18.2603 45.75ZM15.1851 45.2148L14.3355 48.9458L14.3356 48.9458L15.1851 45.2148ZM5.44586 40.0381L2.4843 42.4611L2.48452 42.4614L5.44586 40.0381ZM3.83062 35.6748L0.00729084 35.5203L0.00728011 35.5205L3.83062 35.6748ZM6.08843 31.4229L3.67295 28.4552L3.67269 28.4554L6.08843 31.4229ZM18.2603 28.6963L18.1542 32.5213L22.0868 32.6304V28.6963H18.2603ZM18.2603 24.2334V20.4069H14.4339V24.2334H18.2603ZM18.2613 24.2334V28.0599H22.0874L22.0877 24.2337L18.2613 24.2334ZM18.4712 22.6641L14.7758 21.6713L14.7758 21.6713L18.4712 22.6641ZM18.8404 21.6348L22.3312 23.2018L22.3313 23.2018L18.8404 21.6348ZM18.9605 21.3799L15.5301 19.6846L15.5301 19.6846L18.9605 21.3799ZM19.233 20.873L22.5357 22.8054L22.5357 22.8053L19.233 20.873ZM19.5503 20.3711L16.3811 18.2269L16.381 18.227L19.5503 20.3711ZM19.9107 19.8721L22.9442 22.2044L22.9442 22.2044L19.9107 19.8721ZM20.313 19.3789L17.4144 16.881L17.4144 16.881L20.313 19.3789ZM20.7574 18.8896L23.5237 21.5333L23.5238 21.5333L20.7574 18.8896ZM20.9947 18.6475L18.2928 15.9379L18.2928 15.9379L20.9947 18.6475ZM22.6334 17.2168L24.9744 20.2436L24.9744 20.2436L22.6334 17.2168ZM31.5562 12.4199L30.1406 8.86497L30.1405 8.86498L31.5562 12.4199ZM34.7173 11.2529L35.9593 14.8722L35.9593 14.8722L34.7173 11.2529ZM43.1646 8.80273L42.253 5.08646L42.253 5.08646L43.1646 8.80273ZM45.8336 8.17871L46.6648 11.9138L46.6648 11.9138L45.8336 8.17871ZM48.608 7.59082L47.8525 3.83968L47.8525 3.83968L48.608 7.59082ZM54.4546 6.53027L55.0696 10.307L55.0696 10.307L54.4546 6.53027ZM59.0826 5.83887L58.5652 2.04755L58.5652 2.04755L59.0826 5.83887ZM63.9009 5.24219L64.3256 9.045H64.3256L63.9009 5.24219ZM67.2125 4.89844L66.8474 1.08943V1.08943L67.2125 4.89844ZM72.316 4.46875L72.594 8.28509H72.594L72.316 4.46875ZM74.0513 4.34863L73.8017 0.530329V0.530329L74.0513 4.34863ZM84.7808 3.88574L84.8633 7.71131V7.71131L84.7808 3.88574ZM18.1861 33.7988L18.0736 37.6236L21.8981 37.7361L22.0109 33.9116L18.1861 33.7988ZM9.31011 35.3799L6.89509 32.4118L6.8945 32.4123L9.31011 35.3799ZM8.96832 35.7539L5.61198 33.9163L5.60978 33.9203L8.96832 35.7539ZM8.9273 35.8809L5.10402 35.725L5.10372 35.7326L8.9273 35.8809ZM9.3941 36.8086L6.43266 39.2317L6.43303 39.2322L9.3941 36.8086ZM16.3179 40.2412L15.4683 43.9721L15.4684 43.9722L16.3179 40.2412ZM18.2603 40.6025L17.6956 44.3871L22.0868 45.0423V40.6025H18.2603ZM18.2603 31.2812H22.0868L14.4355 31.1685L18.2603 31.2812ZM162.39 40.6025H158.564V45.042L162.955 44.3871L162.39 40.6025ZM164.335 40.2412L165.184 43.9722L165.184 43.9721L164.335 40.2412ZM171.257 36.8086L174.218 39.2323L174.219 39.2319L171.257 36.8086ZM171.724 35.8809L175.548 35.7322L175.547 35.725L171.724 35.8809ZM171.683 35.7539L175.041 33.9192L175.039 33.9163L171.683 35.7539ZM171.342 35.3799L173.758 32.4125L173.758 32.4121L171.342 35.3799ZM162.466 33.7988L158.642 33.9123L158.755 37.736L162.579 37.6236L162.466 33.7988ZM162.39 31.2314L166.215 31.118L158.564 31.2314H162.39ZM90.3257 3.82617V7.65262C109.977 7.65262 127.626 9.91279 140.241 13.4854C146.575 15.2791 151.423 17.3438 154.599 19.4703C157.916 21.6908 158.565 23.3746 158.565 24.2344H162.391H166.218C166.218 19.4587 162.834 15.7738 158.857 13.1111C154.739 10.3544 149.034 8.02147 142.326 6.12202C128.859 2.30821 110.475 -0.000280857 90.3257 -0.000280857V3.82617ZM162.391 24.2344L158.565 24.2335L158.564 28.6955L162.39 28.6963L166.217 28.6971L166.218 24.2352L162.391 24.2344ZM162.39 28.6963L162.496 32.5213C167.801 32.3739 170.81 33.3022 172.148 34.3905L174.563 31.4229L176.979 28.4552C173.43 25.5667 168.048 24.7112 162.284 24.8713L162.39 28.6963ZM174.563 31.4229L172.147 34.3904C172.782 34.9067 172.981 35.4047 172.999 35.8293L176.822 35.6748L180.645 35.5203C180.523 32.4955 178.97 30.0762 176.979 28.4553L174.563 31.4229ZM176.822 35.6748L172.998 35.8291C173.017 36.2854 172.833 36.8958 172.244 37.615L175.206 40.0381L178.167 42.4612C179.544 40.7782 180.761 38.3922 180.645 35.5205L176.822 35.6748ZM175.206 40.0381L172.244 37.6148C171.058 39.0644 168.496 40.6005 164.617 41.4839L165.466 45.2148L166.316 48.9458C171.08 47.8609 175.49 45.7333 178.167 42.4614L175.206 40.0381ZM165.466 45.2148L164.617 41.4839C163.781 41.6742 162.879 41.8314 161.91 41.9537L162.39 45.75L162.87 49.5463C164.058 49.3961 165.209 49.1978 166.316 48.9458L165.466 45.2148ZM162.39 45.75H158.564V148.924H162.39H166.217V45.75H162.39ZM162.39 148.924H158.564C158.564 157.354 152.248 164.418 143.944 165.236L144.319 169.044L144.694 172.852C157.001 171.639 166.217 161.204 166.217 148.924H162.39ZM144.319 169.044L143.944 165.236C104.415 169.131 76.2581 169.046 36.7566 165.204L36.3863 169.013L36.0159 172.821C75.9979 176.709 104.654 176.797 144.694 172.852L144.319 169.044ZM36.3863 169.013L36.7567 165.204C28.4283 164.394 22.0868 157.32 22.0868 148.873H18.2603H14.4339C14.4339 161.18 23.6882 171.622 36.0159 172.821L36.3863 169.013ZM18.2603 148.873H22.0868V45.75H18.2603H14.4339V148.873H18.2603ZM18.2603 45.75L18.7402 41.9538C17.7724 41.8314 16.8702 41.6742 16.0347 41.4839L15.1851 45.2148L14.3356 48.9458C15.4415 49.1976 16.5924 49.3961 17.7804 49.5462L18.2603 45.75ZM15.1851 45.2148L16.0347 41.4839C12.1554 40.6005 9.5934 39.0644 8.40719 37.6148L5.44586 40.0381L2.48452 42.4614C5.16196 45.7333 9.57129 47.8609 14.3355 48.9458L15.1851 45.2148ZM5.44586 40.0381L8.40741 37.6151C7.82009 36.8972 7.6355 36.2866 7.65396 35.8291L3.83062 35.6748L0.00728011 35.5205C-0.108536 38.3908 1.10632 40.7768 2.4843 42.4611L5.44586 40.0381ZM3.83062 35.6748L7.65395 35.8293C7.67116 35.4035 7.8711 34.9057 8.50418 34.3903L6.08843 31.4229L3.67269 28.4554C1.68052 30.0771 0.129494 32.4968 0.00729084 35.5203L3.83062 35.6748ZM6.08843 31.4229L8.50392 34.3905C9.8409 33.3023 12.85 32.3741 18.1542 32.5213L18.2603 28.6963L18.3664 24.8713C12.6036 24.7114 7.22157 25.5668 3.67295 28.4552L6.08843 31.4229ZM18.2603 28.6963H22.0868V24.2334H18.2603H14.4339V28.6963H18.2603ZM18.2603 24.2334V28.0599H18.2613V24.2334V20.4069H18.2603V24.2334ZM18.2613 24.2334L22.0877 24.2337C22.0878 24.0515 22.1117 23.8616 22.1667 23.6568L18.4712 22.6641L14.7758 21.6713C14.5525 22.5025 14.4349 23.3592 14.4348 24.2331L18.2613 24.2334ZM18.4712 22.6641L22.1667 23.6568C22.2036 23.5194 22.2566 23.368 22.3312 23.2018L18.8404 21.6348L15.3495 20.0677C15.1184 20.5827 14.9246 21.1175 14.7758 21.6713L18.4712 22.6641ZM18.8404 21.6348L22.3313 23.2018C22.3504 23.1591 22.3703 23.1169 22.3909 23.0751L18.9605 21.3799L15.5301 19.6846C15.4669 19.8125 15.4068 19.9402 15.3495 20.0677L18.8404 21.6348ZM18.9605 21.3799L22.3909 23.0752C22.4387 22.9784 22.4868 22.8889 22.5357 22.8054L19.233 20.873L15.9303 18.9407C15.7824 19.1935 15.6498 19.4424 15.5301 19.6846L18.9605 21.3799ZM19.233 20.873L22.5357 22.8053C22.5861 22.7192 22.6467 22.6231 22.7196 22.5152L19.5503 20.3711L16.381 18.227C16.2284 18.4525 16.0766 18.6906 15.9302 18.9407L19.233 20.873ZM19.5503 20.3711L22.7196 22.5153C22.7889 22.4129 22.8636 22.3092 22.9442 22.2044L19.9107 19.8721L16.8772 17.5397C16.7032 17.766 16.5379 17.9952 16.3811 18.2269L19.5503 20.3711ZM19.9107 19.8721L22.9442 22.2044C23.0242 22.1003 23.1131 21.9913 23.2117 21.8768L20.313 19.3789L17.4144 16.881C17.2309 17.0939 17.0512 17.3134 16.8772 17.5398L19.9107 19.8721ZM20.313 19.3789L23.2117 21.8768C23.3093 21.7636 23.4132 21.649 23.5237 21.5333L20.7574 18.8896L17.991 16.246C17.7915 16.4548 17.5992 16.6665 17.4144 16.881L20.313 19.3789ZM20.7574 18.8896L23.5238 21.5333C23.5778 21.4768 23.6352 21.4181 23.6966 21.357L20.9947 18.6475L18.2928 15.9379C18.1926 16.0379 18.0917 16.1406 17.991 16.246L20.7574 18.8896ZM20.9947 18.6475L23.6965 21.357C24.0568 20.9978 24.4809 20.6253 24.9744 20.2436L22.6334 17.2168L20.2923 14.19C19.5733 14.7461 18.9039 15.3285 18.2928 15.9379L20.9947 18.6475ZM22.6334 17.2168L24.9744 20.2436C26.8183 18.8174 29.4832 17.3642 32.9719 15.9749L31.5562 12.4199L30.1405 8.86498C26.2616 10.4097 22.8938 12.1779 20.2923 14.19L22.6334 17.2168ZM31.5562 12.4199L32.9719 15.9749C33.9137 15.5998 34.91 15.2323 35.9593 14.8722L34.7173 11.2529L33.4754 7.63363C32.3214 8.02961 31.2084 8.43974 30.1406 8.86497L31.5562 12.4199ZM34.7173 11.2529L35.9593 14.8722C38.4056 14.0328 41.1204 13.2441 44.0762 12.519L43.1646 8.80273L42.253 5.08646C39.1074 5.85811 36.1691 6.70931 33.4754 7.63363L34.7173 11.2529ZM43.1646 8.80273L44.0762 12.519C44.921 12.3118 45.784 12.1098 46.6648 11.9138L45.8336 8.17871L45.0023 4.44363C44.0681 4.65153 43.1515 4.86605 42.253 5.08646L43.1646 8.80273ZM45.8336 8.17871L46.6648 11.9138C47.5472 11.7174 48.4469 11.5265 49.3634 11.342L48.608 7.59082L47.8525 3.83968C46.8853 4.03447 45.935 4.23607 45.0023 4.44364L45.8336 8.17871ZM48.608 7.59082L49.3634 11.342C51.1971 10.9727 53.1012 10.6275 55.0696 10.307L54.4546 6.53027L53.8397 2.75357C51.7841 3.08828 49.7862 3.45027 47.8525 3.83968L48.608 7.59082ZM54.4546 6.53027L55.0696 10.307C56.5453 10.0667 58.0562 9.84084 59.5999 9.63019L59.0826 5.83887L58.5652 2.04755C56.9583 2.26682 55.3822 2.50237 53.8396 2.75357L54.4546 6.53027ZM59.0826 5.83887L59.5999 9.63019C61.1432 9.4196 62.7193 9.22438 64.3256 9.045L63.9009 5.24219L63.4763 1.43937C61.8101 1.62543 60.1722 1.82827 58.5652 2.04755L59.0826 5.83887ZM63.9009 5.24219L64.3256 9.045C65.3975 8.9253 66.4817 8.81245 67.5775 8.70744L67.2125 4.89844L66.8474 1.08943C65.7105 1.19839 64.5866 1.31539 63.4763 1.43937L63.9009 5.24219ZM67.2125 4.89844L67.5775 8.70744C69.2223 8.54982 70.8953 8.40885 72.594 8.28509L72.316 4.46875L72.0379 0.652413C70.2825 0.780313 68.5514 0.926139 66.8474 1.08943L67.2125 4.89844ZM72.316 4.46875L72.594 8.28509C73.1611 8.24377 73.7301 8.20425 74.3009 8.16694L74.0513 4.34863L73.8017 0.530329C73.2102 0.568994 72.6223 0.609839 72.0379 0.652413L72.316 4.46875ZM74.0513 4.34863L74.3009 8.16694C77.7308 7.94273 81.2584 7.78899 84.8633 7.71131L84.7808 3.88574L84.6984 0.0601776C80.9839 0.140218 77.3448 0.29872 73.8017 0.530329L74.0513 4.34863ZM84.7808 3.88574L84.8633 7.71131C86.6659 7.67246 88.4875 7.65263 90.3257 7.65262L90.3257 3.82617V-0.000280857C88.4325 -0.000279188 86.5559 0.0201504 84.6984 0.0601776L84.7808 3.88574ZM18.1861 33.7988L18.2985 29.974C15.4304 29.8897 13.1312 30.0986 11.3175 30.4965C9.56953 30.8799 8.02421 31.4931 6.89509 32.4118L9.31011 35.3799L11.7251 38.3479C11.57 38.4742 11.8281 38.2194 12.9573 37.9717C14.0207 37.7384 15.6726 37.553 18.0736 37.6236L18.1861 33.7988ZM9.31011 35.3799L6.8945 32.4123C6.35623 32.8505 5.92022 33.3533 5.61199 33.9163L8.96832 35.7539L12.3246 37.5915C12.0913 38.0176 11.8398 38.2546 11.7257 38.3475L9.31011 35.3799ZM8.96832 35.7539L5.60978 33.9203C5.32711 34.4381 5.13179 35.0439 5.10402 35.725L8.9273 35.8809L12.7506 36.0367C12.7409 36.2736 12.7052 36.5702 12.6102 36.8971C12.5229 37.1974 12.4124 37.4308 12.3269 37.5875L8.96832 35.7539ZM8.9273 35.8809L5.10372 35.7326C5.05566 36.972 5.56624 38.1728 6.43266 39.2317L9.3941 36.8086L12.3555 34.3855C12.3192 34.3411 12.7943 34.9104 12.7509 36.0291L8.9273 35.8809ZM9.3941 36.8086L6.43303 39.2322C8.11598 41.2884 11.2936 43.0215 15.4683 43.9721L16.3179 40.2412L17.1675 36.5103C13.883 35.7623 12.5493 34.6222 12.3552 34.385L9.3941 36.8086ZM16.3179 40.2412L15.4684 43.9722C16.1881 44.136 16.932 44.2732 17.6956 44.3871L18.2603 40.6025L18.825 36.818C18.2288 36.729 17.6766 36.6262 17.1674 36.5102L16.3179 40.2412ZM18.2603 40.6025H22.0868V31.2812H18.2603H14.4339V40.6025H18.2603ZM18.2603 31.2812L14.4355 31.1685L14.3613 33.6861L18.1861 33.7988L22.0109 33.9116L22.0851 31.394L18.2603 31.2812ZM162.39 40.6025L162.955 44.3871C163.718 44.2733 164.463 44.1364 165.184 43.9722L164.335 40.2412L163.485 36.5103C162.977 36.626 162.424 36.7287 161.826 36.818L162.39 40.6025ZM164.335 40.2412L165.184 43.9721C169.359 43.0214 172.536 41.288 174.218 39.2323L171.257 36.8086L168.296 34.3849C168.102 34.6224 166.769 35.7624 163.485 36.5103L164.335 40.2412ZM171.257 36.8086L174.219 39.2319C175.086 38.1725 175.596 36.9716 175.548 35.7322L171.724 35.8809L167.901 36.0295C167.857 34.9108 168.332 34.3412 168.296 34.3853L171.257 36.8086ZM171.724 35.8809L175.547 35.725C175.52 35.0456 175.325 34.4395 175.041 33.9192L171.683 35.7539L168.325 37.5886C168.24 37.4321 168.129 37.198 168.041 36.8961C167.946 36.5672 167.91 36.2704 167.901 36.0367L171.724 35.8809ZM171.683 35.7539L175.039 33.9163C174.736 33.3626 174.305 32.858 173.758 32.4125L171.342 35.3799L168.927 38.3473C168.803 38.247 168.555 38.0084 168.327 37.5915L171.683 35.7539ZM171.342 35.3799L173.758 32.4121C172.628 31.4931 171.083 30.8799 169.335 30.4965C167.521 30.0986 165.222 29.8897 162.354 29.974L162.466 33.7988L162.579 37.6236C164.98 37.5531 166.632 37.7384 167.695 37.9717C168.825 38.2194 169.082 38.4742 168.927 38.3477L171.342 35.3799ZM162.466 33.7988L166.291 33.6854L166.215 31.118L162.39 31.2314L158.565 31.3449L158.642 33.9123L162.466 33.7988ZM162.39 31.2314H158.564V40.6025H162.39H166.217V31.2314H162.39Z" fill="black" mask="url(#path-1-outside-1_866_1827)"/>
<path d="M18.2617 24.2344C74.1947 49.3028 105.693 50.4443 162.391 24.2344V148.925C162.391 159.28 154.625 168.029 144.319 169.045C104.535 172.964 76.1294 172.878 36.3877 169.014C26.0594 168.009 18.2617 159.251 18.2617 148.874V24.2344Z" fill="url(#paint1_linear_866_1827)"/>
<mask id="mask0_866_1827" style="mask-type:alpha" maskUnits="userSpaceOnUse" x="18" y="24" width="145" height="148">
<path d="M18.2617 24.2344C73.9268 46.0721 105.433 47.0055 162.391 24.2344V148.925C162.391 159.28 154.625 168.029 144.319 169.045C104.535 172.964 76.1294 172.878 36.3877 169.014C26.0594 168.009 18.2617 159.251 18.2617 148.874V24.2344Z" fill="url(#paint2_linear_866_1827)"/>
</mask>
<g mask="url(#mask0_866_1827)">
</g>
<ellipse cx="31.0159" cy="43.3666" rx="3.82645" ry="5.10194" fill="#858080"/>
<ellipse cx="3.82645" cy="5.10194" rx="3.82645" ry="5.10194" transform="matrix(-1 0 0 1 153.463 38.2646)" fill="#858080"/>
<path d="M18.3368 28.6988L18.186 33.7995C12.9165 33.6445 10.2838 34.5876 9.30997 35.3801C9.09785 35.5528 9.00614 35.6854 8.96868 35.7538C8.93515 35.8151 8.92878 35.8513 8.92758 35.8808C8.92517 35.9405 8.94248 36.2562 9.39467 36.8088C10.3332 37.9555 12.588 39.3923 16.3177 40.2416C19.9693 41.0731 24.8 41.2797 30.5572 40.2192C31.5477 41.975 31.5505 43.137 31.4815 45.2377C25.1208 46.4093 19.5859 46.2173 15.1854 45.2153C10.8636 44.2312 7.37799 42.3994 5.44615 40.0386C4.46341 38.8375 3.76348 37.3393 3.83062 35.6753C3.90026 33.9505 4.77604 32.4915 6.08888 31.4229C8.54288 29.4255 12.7655 28.5349 18.3368 28.6988Z" fill="#999292"/>
<path d="M162.316 28.6988L162.466 33.7995C167.736 33.6445 170.369 34.5876 171.342 35.3801C171.554 35.5528 171.646 35.6854 171.684 35.7538C171.717 35.8151 171.724 35.8513 171.725 35.8808C171.727 35.9405 171.71 36.2562 171.258 36.8088C170.319 37.9555 168.064 39.3923 164.335 40.2416C160.683 41.0731 155.852 41.2797 150.095 40.2192C149.201 41.8679 149.038 42.994 149.171 45.2377C155.532 46.4093 161.066 46.2173 165.467 45.2153C169.789 44.2312 173.274 42.3994 175.206 40.0386C176.189 38.8375 176.889 37.3393 176.822 35.6753C176.752 33.9505 175.876 32.4915 174.563 31.4229C172.109 29.4255 167.887 28.5349 162.316 28.6988Z" fill="#999292"/>
<ellipse cx="90.3266" cy="24.2339" rx="72.0649" ry="20.4077" fill="url(#paint3_linear_866_1827)"/>
<mask id="mask1_866_1827" style="mask-type:alpha" maskUnits="userSpaceOnUse" x="18" y="5" width="144" height="40">
<ellipse cx="90.3262" cy="24.8962" rx="71.5" ry="19.1579" fill="url(#paint4_linear_866_1827)"/>
</mask>
<g mask="url(#mask1_866_1827)">
<ellipse cx="90.3262" cy="30.8302" rx="66.5" ry="13.8761" fill="url(#paint5_radial_866_1827)"/>
</g>
<mask id="mask2_866_1827" style="mask-type:alpha" maskUnits="userSpaceOnUse" x="117" y="7" width="30" height="27">
<rect width="29" height="25.2821" transform="matrix(-1 0 0 1 146.826 7.82617)" fill="#D9D9D9"/>
</mask>
<g mask="url(#mask2_866_1827)">
<path d="M131.586 26.9367C129.822 26.394 127.993 26.9064 126.493 28.0292C124.992 29.1527 123.761 30.9208 123.106 33.05C122.451 35.1789 122.475 37.3327 123.085 39.1055C123.694 40.8776 124.918 42.3303 126.682 42.8731C128.445 43.4157 130.273 42.9022 131.773 41.7793C133.274 40.6558 134.505 38.8886 135.16 36.7595C135.816 34.6303 135.791 32.476 135.182 30.7031C134.573 28.9313 133.349 27.4795 131.586 26.9367Z" fill="#D9D9D9"/>
<path d="M131.586 26.9367C129.822 26.394 127.993 26.9064 126.493 28.0292C124.992 29.1527 123.761 30.9208 123.106 33.05C122.451 35.1789 122.475 37.3327 123.085 39.1055C123.694 40.8776 124.918 42.3303 126.682 42.8731C128.445 43.4157 130.273 42.9022 131.773 41.7793C133.274 40.6558 134.505 38.8886 135.16 36.7595C135.816 34.6303 135.791 32.476 135.182 30.7031C134.573 28.9313 133.349 27.4795 131.586 26.9367Z" fill="url(#paint6_radial_866_1827)"/>
<path d="M131.586 26.9367C129.822 26.394 127.993 26.9064 126.493 28.0292C124.992 29.1527 123.761 30.9208 123.106 33.05C122.451 35.1789 122.475 37.3327 123.085 39.1055C123.694 40.8776 124.918 42.3303 126.682 42.8731C128.445 43.4157 130.273 42.9022 131.773 41.7793C133.274 40.6558 134.505 38.8886 135.16 36.7595C135.816 34.6303 135.791 32.476 135.182 30.7031C134.573 28.9313 133.349 27.4795 131.586 26.9367Z" stroke="black" stroke-width="1.7055"/>
</g>
<mask id="mask3_866_1827" style="mask-type:alpha" maskUnits="userSpaceOnUse" x="63" y="3" width="40" height="35">
<rect x="63.8262" y="3.82617" width="39" height="34" fill="#D9D9D9"/>
</mask>
<g mask="url(#mask3_866_1827)">
<path d="M94.705 27.3306C93.7723 25.6772 91.6845 25.065 90.0036 25.9664C88.477 26.7854 87.8063 28.574 88.3406 30.1625C88.1229 29.9234 87.8944 29.6959 87.6522 29.4833L87.6512 29.4834C85.6311 27.7113 83.2218 27.276 81.2504 27.4475C79.7516 27.578 78.415 28.2485 77.4615 29.3594C76.5507 30.4204 76.1494 31.6891 76.0588 32.8417L76.0391 33.2679C76.0084 35.1661 76.7572 37.1398 78.2017 38.6328C77.653 38.5929 77.0294 38.5395 76.3135 38.4727C74.4486 38.2987 72.7907 39.6219 72.5255 41.4538L72.5038 41.6332C72.3246 43.5569 73.7379 45.263 75.6624 45.443C78.2591 45.6854 81.0673 45.9764 83.6327 45.2504C86.1002 44.552 88.022 43.0504 89.7297 40.7989C91.5889 40.2939 93.1491 39.4118 94.2914 38.0906C95.7398 36.4151 96.1403 34.4759 96.1439 32.9056C96.1473 31.3669 95.7772 29.9919 95.4598 29.0774L95.3371 28.7372C95.2154 28.4134 95.098 28.1379 95.0007 27.9234C94.9348 27.7784 94.8777 27.6609 94.8351 27.5751C94.8103 27.5253 94.7873 27.4816 94.7784 27.4644L94.7774 27.4645C94.772 27.4539 94.7678 27.444 94.7643 27.4372L94.7586 27.4279L94.7585 27.4269L94.755 27.4213C94.752 27.4154 94.7498 27.4085 94.7465 27.4025L94.7408 27.3932C94.7399 27.3915 94.7394 27.3893 94.7384 27.3875C94.7353 27.3819 94.726 27.3656 94.7198 27.3548C94.7172 27.3502 94.713 27.3455 94.7097 27.34C94.7079 27.337 94.7068 27.3336 94.705 27.3306ZM88.5611 30.6805C88.5574 30.6732 88.5543 30.6673 88.5529 30.6645C88.5515 30.6617 88.5507 30.6595 88.5504 30.6589C88.5538 30.6657 88.5573 30.673 88.5611 30.6805Z" fill="url(#paint7_linear_866_1827)" stroke="black" stroke-width="3" stroke-linejoin="round"/>
<path d="M91.6568 29.0516C91.6568 29.0516 95.6185 36.4392 87.6591 37.6654M87.6591 37.6654C85.4747 38.0019 83.1988 38.3196 81.033 36.5005C78.8671 34.6814 79.0621 31.1512 81.5525 30.9346C84.0428 30.7179 87.1327 32.0565 87.6591 37.6654ZM87.6591 37.6654C84.3731 42.6693 81.5531 42.4779 75.9869 41.9585" stroke="url(#paint8_linear_866_1827)" stroke-width="4" stroke-linecap="round"/>
</g>
<mask id="mask4_866_1827" style="mask-type:alpha" maskUnits="userSpaceOnUse" x="100" y="0" width="30" height="27">
<rect x="100.826" y="0.826172" width="29" height="25.2821" fill="#D9D9D9"/>
</mask>
<g mask="url(#mask4_866_1827)">
<path d="M106.429 27.7433C105.783 26.4963 106.241 24.9552 107.477 24.271C108.607 23.6462 109.995 23.9525 110.771 24.9308C110.709 24.6961 110.659 24.4588 110.624 24.2193C110.331 22.2426 111.031 20.5619 111.933 19.3993C112.619 18.5155 113.577 17.9502 114.655 17.8024C115.685 17.6613 116.639 17.9228 117.396 18.3309C118.725 19.0482 119.773 20.3883 120.149 22.0065C120.346 21.6471 120.565 21.2355 120.812 20.7605C121.476 19.4855 123.047 18.9912 124.322 19.6545C125.596 20.3182 126.092 21.8891 125.429 23.164L125.429 23.1648C124.533 24.8848 123.583 26.7562 122.095 28.0662C120.664 29.326 118.951 29.9208 116.856 30.08C115.791 31.0383 114.61 31.6573 113.324 31.8383C111.693 32.0675 110.319 31.5363 109.337 30.9053C108.374 30.2869 107.665 29.5008 107.221 28.9338C106.992 28.6407 106.812 28.3785 106.686 28.1821C106.622 28.0826 106.572 27.9992 106.535 27.938C106.514 27.9021 106.495 27.8692 106.488 27.857C106.484 27.8495 106.48 27.8431 106.477 27.8382C106.472 27.8301 106.475 27.8331 106.473 27.8303C106.473 27.8297 106.472 27.8276 106.471 27.8258C106.468 27.8217 106.465 27.8178 106.463 27.8136L106.432 27.7541L106.431 27.7521L106.432 27.7506C106.431 27.7483 106.431 27.7457 106.429 27.7433ZM111.005 25.2702C111.002 25.2652 111 25.2612 110.999 25.2592L110.997 25.2566C110.999 25.2595 111.001 25.2644 111.005 25.2702ZM110.966 25.2083L110.966 25.2063C110.961 25.2001 110.958 25.1948 110.955 25.1909C110.954 25.1895 110.953 25.1883 110.952 25.1871C110.956 25.1927 110.961 25.1999 110.966 25.2083Z" fill="url(#paint9_linear_866_1827)" stroke="black" stroke-width="2.23077" stroke-linejoin="round"/>
<path d="M108.739 26.5475C108.739 26.5475 111.757 32.0015 115.732 27.5231M115.732 27.5231C116.824 26.2941 117.94 25.0003 117.676 22.9136C117.413 20.827 115.129 19.5253 113.99 20.9939C112.85 22.4624 112.44 24.9326 115.732 27.5231ZM115.732 27.5231C120.184 27.4878 121.201 25.6488 123.121 21.9618" stroke="url(#paint10_linear_866_1827)" stroke-width="2.97436" stroke-linecap="round"/>
</g>
<mask id="mask5_866_1827" style="mask-type:alpha" maskUnits="userSpaceOnUse" x="117" y="7" width="30" height="27">
<rect x="117.826" y="7.82617" width="29" height="25.2821" fill="#D9D9D9"/>
</mask>
<g mask="url(#mask5_866_1827)">
<path d="M123.625 27.9173C123.926 26.5453 125.264 25.6536 126.652 25.9183C127.919 26.1603 128.791 27.2838 128.762 28.5323C128.864 28.3119 128.978 28.0978 129.103 27.891C130.143 26.1843 131.755 25.3397 133.192 25.023C134.285 24.7823 135.383 24.9605 136.307 25.5367C137.189 26.087 137.755 26.8983 138.075 27.6959C138.639 29.0977 138.587 30.7979 137.841 32.2825C138.222 32.132 138.654 31.9555 139.147 31.7486C140.473 31.1932 141.997 31.8182 142.553 33.1432C143.108 34.4683 142.485 35.9935 141.159 36.5492L141.158 36.5494C139.37 37.2988 137.442 38.1297 135.461 38.185C133.555 38.2381 131.858 37.5998 130.146 36.3823C128.714 36.4375 127.41 36.1582 126.306 35.4745C124.905 34.6078 124.189 33.3208 123.838 32.2074C123.493 31.1163 123.451 30.0583 123.473 29.3389C123.484 28.967 123.513 28.6504 123.542 28.4186C123.556 28.3013 123.571 28.2051 123.582 28.1347C123.589 28.0935 123.595 28.0562 123.598 28.0423C123.599 28.0338 123.6 28.0261 123.601 28.0206C123.603 28.0114 123.603 28.0152 123.603 28.0121C123.603 28.0114 123.604 28.009 123.604 28.0069C123.605 28.0022 123.605 27.9973 123.606 27.9925L123.62 27.9273L123.621 27.9252L123.623 27.9248C123.624 27.9223 123.625 27.9199 123.625 27.9173ZM128.724 28.9426C128.725 28.9369 128.726 28.9325 128.726 28.9301L128.727 28.927C128.726 28.9304 128.725 28.9359 128.724 28.9426ZM128.734 28.8704L128.735 28.8683C128.736 28.8609 128.736 28.8546 128.737 28.8498C128.737 28.8482 128.737 28.8463 128.737 28.8449C128.736 28.8517 128.735 28.8604 128.734 28.8704Z" fill="url(#paint11_linear_866_1827)" stroke="black" stroke-width="2.23077" stroke-linejoin="round"/>
<path d="M126.165 28.4752C126.165 28.4752 124.997 34.5981 130.917 33.6983M130.917 33.6983C132.542 33.4513 134.227 33.1707 135.36 31.3983C136.492 29.6259 135.569 27.1644 133.753 27.5644C131.938 27.9644 130.043 29.6013 130.917 33.6983ZM130.917 33.6983C134.361 36.5181 136.32 35.7553 140.154 34.149" stroke="url(#paint12_linear_866_1827)" stroke-width="2.97436" stroke-linecap="round"/>
</g>
<mask id="mask6_866_1827" style="mask-type:alpha" maskUnits="userSpaceOnUse" x="27" y="3" width="40" height="35">
<rect x="27.8262" y="3.82617" width="39" height="34" fill="#D9D9D9"/>
</mask>
<g mask="url(#mask6_866_1827)">
<path d="M59.513 43.1443C60.7924 41.7418 60.7218 39.5673 59.3406 38.252C58.0858 37.0575 56.1771 36.979 54.835 37.9827C54.9942 37.7012 55.1389 37.4131 55.2652 37.1166L55.2648 37.1157C56.3174 34.6431 55.9784 32.2185 55.1997 30.3993C54.6077 29.0162 53.5532 27.9558 52.2002 27.397C50.9078 26.8632 49.5772 26.8782 48.454 27.1521L48.0429 27.2664C46.2301 27.8301 44.589 29.1579 43.6218 30.9965C43.4883 30.4627 43.3443 29.8537 43.1842 29.1527C42.767 27.3268 40.9922 26.165 39.1691 26.4853L38.992 26.5207C37.1084 26.9512 35.9291 28.8267 36.3592 30.7112C36.94 33.2537 37.5405 36.0123 39.0315 38.2226C40.4656 40.3486 42.4923 41.7052 45.1645 42.6244C46.2249 44.2328 47.5502 45.4394 49.1621 46.112C51.2061 46.9646 53.1734 46.7395 54.6663 46.2524C56.1291 45.775 57.3197 44.9941 58.0893 44.4069L58.3742 44.1841C58.6437 43.9674 58.8688 43.7698 59.0422 43.6103C59.1594 43.5025 59.2532 43.4115 59.3213 43.3442C59.3609 43.3051 59.3953 43.2696 59.4088 43.2558L59.4084 43.2549C59.4167 43.2464 59.4249 43.2394 59.4302 43.2339L59.4373 43.2255L59.4382 43.2252L59.4424 43.2202C59.4471 43.2154 59.4529 43.2112 59.4577 43.2062L59.4647 43.1979C59.4661 43.1965 59.4679 43.1953 59.4694 43.1938C59.4737 43.1891 59.4864 43.1752 59.4946 43.1659C59.4982 43.1619 59.5014 43.1565 59.5055 43.1517C59.5078 43.1491 59.5107 43.1469 59.513 43.1443ZM54.4118 38.354C54.4175 38.3482 54.4222 38.3433 54.4244 38.3412C54.4266 38.339 54.4285 38.3376 54.429 38.3371C54.4235 38.3425 54.4177 38.348 54.4118 38.354Z" fill="url(#paint13_linear_866_1827)" stroke="black" stroke-width="3" stroke-linejoin="round"/>
<path d="M56.9263 40.7868C56.9263 40.7868 51.1455 46.8576 47.4948 39.6793M47.4948 39.6793C46.4928 37.7093 45.4802 35.6465 46.5319 33.0209C47.5835 30.3952 50.998 29.4778 51.9816 31.776C52.9653 34.0741 52.6587 37.4275 47.4948 39.6793ZM47.4948 39.6793C41.7149 38.1206 41.0159 35.3818 39.7709 29.9319" stroke="url(#paint14_linear_866_1827)" stroke-width="4" stroke-linecap="round"/>
</g>
<defs>
<linearGradient id="paint0_linear_866_1827" x1="90.3262" y1="44.6415" x2="90.3262" y2="3.82617" gradientUnits="userSpaceOnUse">
<stop stop-color="#0B3FA7"/>
<stop offset="1" stop-color="#BEAFAF"/>
</linearGradient>
<linearGradient id="paint1_linear_866_1827" x1="90.3266" y1="24.2344" x2="90.3266" y2="171.948" gradientUnits="userSpaceOnUse">
<stop stop-color="#C2C2C2"/>
<stop offset="0.0673793" stop-color="#E5E5E5"/>
<stop offset="0.586619" stop-color="#848484"/>
<stop offset="0.889506" stop-color="#565656"/>
<stop offset="1" stop-color="#D27373"/>
</linearGradient>
<linearGradient id="paint2_linear_866_1827" x1="90.3266" y1="24.2344" x2="90.3266" y2="171.948" gradientUnits="userSpaceOnUse">
<stop stop-color="#C2C2C2"/>
<stop offset="0.0673793" stop-color="#E5E5E5"/>
<stop offset="0.586619" stop-color="#848484"/>
<stop offset="0.889506" stop-color="#565656"/>
<stop offset="1" stop-color="#D27373"/>
</linearGradient>
<linearGradient id="paint3_linear_866_1827" x1="90.3266" y1="44.6417" x2="90.3266" y2="3.82617" gradientUnits="userSpaceOnUse">
<stop stop-color="#7F7F7F"/>
<stop offset="1" stop-color="#BEAFAF"/>
</linearGradient>
<linearGradient id="paint4_linear_866_1827" x1="90.3262" y1="44.0541" x2="90.3262" y2="5.73828" gradientUnits="userSpaceOnUse">
<stop stop-color="#0B3FA7"/>
<stop offset="1" stop-color="#BEAFAF"/>
</linearGradient>
<radialGradient id="paint5_radial_866_1827" cx="0" cy="0" r="1" gradientUnits="userSpaceOnUse" gradientTransform="translate(90.3262 30.8302) rotate(-90) scale(15.6106 81.1161)">
<stop stop-color="#A3CEFF"/>
<stop offset="0.0721842" stop-color="#2C3132"/>
<stop offset="0.398874" stop-color="#333445"/>
<stop offset="0.613519" stop-color="#2F2D39"/>
<stop offset="0.889506" stop-color="#4C34FF"/>
<stop offset="1" stop-color="#C2E5FF"/>
</radialGradient>
<radialGradient id="paint6_radial_866_1827" cx="0" cy="0" r="1" gradientUnits="userSpaceOnUse" gradientTransform="translate(129.133 34.9048) rotate(107.105) scale(6.36165 4.6353)">
<stop stop-color="#B3E8FF"/>
<stop offset="0.692387" stop-color="#B9EEFF"/>
<stop offset="1" stop-color="#FFD646"/>
</radialGradient>
<linearGradient id="paint7_linear_866_1827" x1="83.6612" y1="29.7466" x2="84.7141" y2="41.848" gradientUnits="userSpaceOnUse">
<stop stop-color="#FF7F27"/>
<stop offset="1" stop-color="#C7F0B0"/>
</linearGradient>
<linearGradient id="paint8_linear_866_1827" x1="83.6591" y1="29.7475" x2="84.712" y2="41.8489" gradientUnits="userSpaceOnUse">
<stop stop-color="#FF7F27"/>
<stop offset="1" stop-color="#C7F0B0"/>
</linearGradient>
<linearGradient id="paint9_linear_866_1827" x1="112.397" y1="21.8325" x2="119.533" y2="27.3699" gradientUnits="userSpaceOnUse">
<stop stop-color="#FF7F27"/>
<stop offset="1" stop-color="#C7F0B0"/>
</linearGradient>
<linearGradient id="paint10_linear_866_1827" x1="112.398" y1="21.8314" x2="119.534" y2="27.3688" gradientUnits="userSpaceOnUse">
<stop stop-color="#FF7F27"/>
<stop offset="1" stop-color="#C7F0B0"/>
</linearGradient>
<linearGradient id="paint11_linear_866_1827" x1="131.993" y1="27.1904" x2="133.937" y2="36.0112" gradientUnits="userSpaceOnUse">
<stop stop-color="#FF7F27"/>
<stop offset="1" stop-color="#C7F0B0"/>
</linearGradient>
<linearGradient id="paint12_linear_866_1827" x1="131.995" y1="27.1905" x2="133.939" y2="36.0114" gradientUnits="userSpaceOnUse">
<stop stop-color="#FF7F27"/>
<stop offset="1" stop-color="#C7F0B0"/>
</linearGradient>
<linearGradient id="paint13_linear_866_1827" x1="53.7686" y1="33.4075" x2="42.6014" y2="38.1873" gradientUnits="userSpaceOnUse">
<stop stop-color="#FF7F27"/>
<stop offset="1" stop-color="#C7F0B0"/>
</linearGradient>
<linearGradient id="paint14_linear_866_1827" x1="53.7673" y1="33.4065" x2="42.6001" y2="38.1863" gradientUnits="userSpaceOnUse">
<stop stop-color="#FF7F27"/>
<stop offset="1" stop-color="#C7F0B0"/>
</linearGradient>
</defs>
</svg>
